<?xml version="1.0" standalone="no"?>
<!DOCTYPE svg PUBLIC "-//W3C//DTD SVG 20010904//EN"
 "http://www.w3.org/TR/2001/REC-SVG-20010904/DTD/svg10.dtd">
<svg version="1.0" xmlns="http://www.w3.org/2000/svg"
 width="252.000000pt" height="262.000000pt" viewBox="0 0 252.000000 262.000000"
 preserveAspectRatio="xMidYMid meet">

<g transform="translate(0.000000,262.000000) scale(0.100000,-0.100000)"
fill="#000000" stroke="none">
<path d="M813 2420 c-34 -14 -28 -31 8 -23 29 6 31 4 24 -18 -4 -13 -14 -36
-21 -51 -8 -15 -14 -29 -14 -31 0 -7 100 28 100 36 0 4 -14 7 -31 7 -26 0 -30
3 -24 18 4 9 10 29 13 45 5 30 -11 34 -55 17z"/>
<path d="M74 2382 c-8 -5 -14 -107 -18 -332 -10 -580 -12 -527 15 -553 23 -21
24 -28 22 -135 -1 -113 -1 -114 -31 -140 -24 -22 -31 -37 -36 -81 -6 -63 3
-84 43 -101 16 -6 33 -19 37 -28 4 -10 10 -108 14 -218 4 -143 9 -206 19 -217
7 -9 33 -19 58 -23 48 -7 65 -21 99 -81 20 -36 24 -38 120 -59 194 -43 462
-94 497 -94 19 0 49 -10 68 -23 57 -38 84 -46 165 -48 l78 -2 37 41 c51 58 67
55 71 -10 2 -33 8 -53 16 -54 6 -1 16 -2 21 -3 4 0 14 -29 21 -63 19 -90 20
-91 116 -85 64 4 98 12 160 40 43 19 89 38 101 42 12 3 49 26 82 50 33 24 81
55 108 69 26 13 61 38 77 55 17 17 37 31 47 31 9 0 22 7 29 15 7 8 23 15 37
15 14 0 26 7 29 18 3 9 13 31 21 47 23 46 14 67 -45 100 -46 27 -52 33 -46 55
15 57 8 99 -30 175 -34 69 -37 79 -22 87 22 13 21 84 -3 156 -58 171 -139 309
-271 462 -70 82 -149 189 -224 305 -177 273 -253 358 -367 412 -82 39 -159 54
-219 43 -178 -34 -336 -153 -414 -312 -83 -167 -75 -432 15 -549 22 -29 26
-41 20 -70 -7 -33 -8 -34 -56 -34 l-49 0 3 100 c3 114 -4 127 -73 139 -58 11
-76 -10 -76 -93 0 -36 -3 -76 -6 -89 -6 -21 -11 -22 -49 -16 -43 6 -88 -12
-108 -43 -4 -7 -17 -13 -27 -13 -19 0 -20 8 -20 101 0 96 1 100 20 95 11 -3
28 -8 39 -11 13 -4 21 2 29 22 19 51 33 254 34 510 1 281 4 266 -74 351 -36
39 -82 59 -104 44z m98 -80 l44 -47 3 -231 c2 -240 -13 -522 -30 -539 -6 -5
-9 -5 -9 1 0 6 -19 19 -41 30 l-42 18 7 126 c3 69 6 252 6 408 0 155 4 282 9
282 4 0 28 -21 53 -48z m888 -699 c-1 -13 -48 -63 -60 -63 -15 0 -12 22 6 48
14 20 54 31 54 15z m180 -31 c0 -10 -87 -72 -100 -72 -22 0 -8 29 27 53 37 26
73 35 73 19z m-134 -98 c49 -23 43 -37 -13 -30 -122 13 -149 26 -100 46 27 11
67 6 113 -16z m-156 -51 c0 -10 -7 -12 -19 -8 -10 3 -35 -2 -55 -12 -32 -15
-45 -16 -108 -5 -64 11 -73 11 -91 -5 -24 -23 -56 -84 -50 -100 2 -6 -1 -14
-6 -18 -15 -9 -14 32 2 77 15 43 69 98 94 98 10 -1 38 -5 62 -9 30 -6 53 -5
74 4 35 15 97 0 97 -22z m-250 -183 c-36 -12 -158 -12 -165 0 -4 6 29 10 92 9
64 -1 89 -4 73 -9z m175 0 l50 -7 -72 -2 c-39 0 -75 4 -78 9 -7 12 28 12 100
0z m-480 -10 c-8 -13 -165 -13 -185 0 -10 7 18 10 88 10 66 0 101 -4 97 -10z"/>
<path d="M609 2328 c-23 -21 -30 -33 -21 -36 7 -2 25 6 39 19 l26 24 -7 -25
c-16 -63 -28 -122 -23 -126 2 -2 24 7 48 22 l44 26 -34 -6 -33 -6 6 35 c3 19
9 51 12 70 8 45 -11 47 -57 3z"/>
<path d="M393 2252 c-51 -50 -73 -79 -66 -86 12 -12 21 -5 48 35 16 25 30 38
36 32 5 -5 5 -49 -1 -108 -9 -102 -6 -124 14 -91 6 11 26 37 45 58 34 39 36
65 3 35 -36 -33 -45 -22 -38 46 4 34 10 74 13 90 8 37 -9 34 -54 -11z"/>
<path d="M2385 1310 c-104 -43 -226 -400 -190 -560 11 -52 42 -108 69 -125 20
-14 28 -14 45 -3 11 7 23 9 27 5 4 -3 2 -39 -5 -79 -20 -127 -19 -208 3 -208
16 0 22 21 41 150 24 158 39 283 37 320 -3 56 60 280 79 280 5 0 9 39 9 86 0
83 -1 86 -32 115 -34 30 -49 34 -83 19z"/>
</g>
</svg>
