<?xml version="1.0" encoding="UTF-8"?>
<svg xmlns="http://www.w3.org/2000/svg" xmlns:xlink="http://www.w3.org/1999/xlink" width="400pt" height="516pt" viewBox="0 0 400 516" version="1.1">
<g id="surface1">
<path style=" stroke:none;fill-rule:nonzero;fill:rgb(0%,0%,0%);fill-opacity:1;" d="M 196.5 51.917969 C 192.101562 52.320312 187.199219 53.417969 185.5 54.214844 C 183.898438 55.113281 180 56.414062 177 57.210938 C 174 58.011719 169.5 59.90625 167 61.304688 L 162.5 63.902344 L 83 64.101562 C 39.300781 64.199219 12 64.601562 22.300781 64.898438 L 41.101562 65.398438 L 30.800781 73.386719 C 25.101562 77.78125 16.800781 84.070312 12.300781 87.363281 C 7.398438 90.957031 4.101562 94.054688 4.101562 95.152344 C 4 96.152344 4.398438 96.851562 5 96.648438 C 5.898438 96.351562 20.398438 85.46875 37.601562 72.089844 C 42.800781 68.195312 48 64.898438 49.101562 64.898438 C 52.101562 64.898438 50.800781 66.199219 39.199219 74.984375 C 8 98.648438 4 101.941406 4 104.4375 C 4 105.734375 4.199219 106.835938 4.5 106.835938 C 4.800781 106.835938 17.398438 97.347656 32.5 85.867188 L 60 64.898438 L 83 64.898438 C 95.601562 64.898438 106 65.199219 105.898438 65.597656 C 105.898438 66.097656 98.800781 71.6875 90.199219 78.179688 C 74.199219 90.160156 62.300781 99.144531 60.5 100.542969 C 51.800781 107.535156 41.601562 114.820312 40.5 114.820312 C 39.699219 114.820312 39 115.320312 39 115.921875 C 39 117.21875 35 120.710938 33.398438 120.8125 C 32.898438 120.8125 31.101562 122.109375 29.601562 123.707031 C 28.101562 125.207031 21.800781 130.296875 15.5 134.890625 C 8.398438 140.082031 4 143.976562 4 144.976562 C 4 145.972656 4.199219 146.773438 4.5 146.773438 C 4.898438 146.773438 31.898438 126.605469 38 121.613281 C 54.699219 108.132812 112.800781 64.898438 114.199219 64.898438 C 117.300781 64.898438 116.199219 66.199219 107.898438 72.386719 C 103.5 75.683594 97.300781 80.375 94.101562 82.871094 C 90.898438 85.367188 81.199219 92.757812 72.5 99.347656 C 63.898438 105.9375 52.601562 114.621094 47.398438 118.515625 C 42.199219 122.511719 37.5 125.804688 37 125.804688 C 36.398438 125.804688 36 126.203125 36 126.605469 C 36 127.003906 32.601562 129.898438 28.398438 132.894531 C 24.300781 135.789062 18.800781 139.984375 16.199219 142.179688 C 13.699219 144.277344 9.898438 147.171875 7.800781 148.46875 C 4.699219 150.566406 4 151.664062 4 154.261719 C 4 156.257812 4.601562 157.753906 5.601562 158.15625 C 6.398438 158.453125 6.800781 158.355469 6.5 157.753906 C 6.199219 157.257812 11.199219 152.863281 17.5 148.070312 C 23.898438 143.277344 31.398438 137.386719 34.300781 135.089844 C 38.898438 131.394531 39.699219 131.097656 41.101562 132.394531 C 43.300781 134.390625 43.800781 134.191406 43.5 130.996094 C 43.199219 128.800781 44 127.601562 47.800781 124.707031 C 50.398438 122.808594 60.601562 115.121094 70.5 107.632812 C 80.398438 100.144531 90.800781 92.15625 93.699219 89.960938 C 96.5 87.765625 103.699219 82.273438 109.699219 77.78125 C 115.601562 73.285156 121.800781 68.492188 123.398438 67.195312 C 126.101562 64.898438 126.699219 64.898438 143.800781 65 L 161.300781 65.097656 L 156.398438 69.191406 C 148.5 75.78125 142.800781 81.972656 138 89.0625 C 133.398438 96.050781 124.800781 103.441406 122.800781 102.242188 C 122.101562 101.84375 122 101.941406 122.398438 102.640625 C 122.800781 103.238281 121.601562 104.738281 119.699219 106.035156 C 117.898438 107.332031 109 114.023438 100 121.011719 C 54.101562 156.359375 36 169.738281 33.800781 169.738281 C 32.199219 169.738281 31.898438 170.035156 32.800781 170.636719 C 33.699219 171.132812 29.5 174.929688 19 182.816406 C 9.300781 190.207031 4 194.796875 4 195.996094 C 4 197.195312 4.398438 197.59375 5.300781 197.09375 C 6.699219 196.195312 51.101562 162.449219 97.300781 127.003906 C 114.800781 113.625 129.398438 102.941406 129.699219 103.238281 C 130.898438 104.4375 126.800781 108.832031 119.300781 114.523438 C 115 117.816406 105.898438 124.707031 99 129.898438 C 92.101562 135.089844 81.300781 143.378906 75 148.171875 C 68.699219 153.0625 50.101562 167.140625 33.800781 179.621094 C 7.199219 199.789062 4 202.484375 4 204.980469 C 4 207.476562 4.199219 207.679688 5.898438 206.480469 C 8 204.980469 30.398438 187.910156 45.800781 176.027344 C 51.699219 171.433594 57.101562 167.738281 57.800781 167.738281 C 58.398438 167.738281 59 167.339844 59 166.839844 C 59 166.34375 61.101562 164.34375 63.800781 162.449219 C 72.199219 156.257812 118.398438 120.914062 122.300781 117.816406 C 126.300781 114.421875 126.398438 114.523438 125 120.3125 C 123.800781 125.207031 122.398438 135.589844 121.5 146.273438 C 121.101562 150.667969 120.601562 154.558594 120.398438 154.960938 C 120.101562 155.359375 107 165.542969 91.199219 177.523438 C 63.101562 198.890625 30.101562 224.050781 12.800781 237.332031 C 7.199219 241.625 4 244.71875 4 245.917969 C 4 247.816406 4.101562 247.816406 6.699219 246.019531 C 8.300781 245.121094 11.601562 242.523438 14.101562 240.425781 C 16.601562 238.332031 19.199219 236.632812 19.800781 236.632812 C 20.5 236.632812 21 236.234375 21 235.734375 C 21 235.335938 28.101562 229.542969 36.800781 222.953125 C 45.398438 216.464844 63.101562 202.984375 76 193.101562 C 117.300781 161.648438 120.101562 159.550781 120.699219 160.050781 C 121 160.453125 121 161.351562 120.699219 162.046875 C 120.199219 163.246094 90.699219 186.3125 62 207.878906 C 13.101562 244.519531 4.101562 251.808594 4 254.304688 C 4 255.605469 4.300781 256.601562 4.800781 256.601562 C 5.199219 256.601562 10 253.109375 15.5 248.8125 C 26.398438 240.425781 64.101562 211.472656 97.699219 185.910156 C 109.398438 177.027344 119.199219 169.738281 119.5 169.738281 C 120.601562 169.738281 119.898438 176.625 118.800781 177.125 C 117.800781 177.625 117.800781 177.824219 118.800781 178.324219 C 120.300781 179.023438 120.398438 185.910156 118.800781 187.507812 C 117.898438 188.40625 117.898438 188.707031 118.800781 188.707031 C 119.601562 188.707031 120 191.203125 120 196.894531 L 119.898438 205.183594 L 111.398438 211.671875 C 106.699219 215.265625 102.101562 218.5625 101.199219 219.160156 C 100.300781 219.660156 99.300781 220.457031 99 220.757812 C 98.699219 221.058594 92.699219 225.75 85.5 231.242188 C 78.398438 236.734375 65.199219 246.816406 56.398438 253.707031 C 47.5 260.496094 32.199219 272.179688 22.5 279.464844 C 12.800781 286.855469 4.601562 293.542969 4.300781 294.144531 C 4 294.84375 4 296.140625 4.199219 297.140625 C 4.5 298.738281 12.601562 292.847656 59.300781 256.902344 C 96 228.644531 119 211.371094 119.5 211.871094 C 121.199219 213.570312 117.398438 216.765625 77.5 247.117188 C 74.601562 249.3125 64.898438 256.703125 55.800781 263.589844 C 2.199219 304.328125 4.101562 302.832031 4 305.824219 L 4 308.621094 L 8.300781 305.625 C 10.601562 303.929688 18.101562 298.335938 25 293.046875 C 31.898438 287.753906 42.898438 279.265625 49.5 274.273438 C 56.101562 269.28125 67.800781 260.296875 75.5 254.40625 C 104.800781 231.839844 117 222.65625 117.5 222.65625 C 118.601562 222.65625 117.898438 230.441406 116 242.125 C 114.800781 248.714844 113.601562 255.804688 113.300781 257.898438 C 112.699219 261.992188 110.898438 263.691406 92 277.871094 C 87.898438 280.964844 83.898438 284.058594 83.101562 284.660156 C 82.101562 285.558594 81.300781 285.558594 79.898438 284.757812 C 78.398438 283.761719 78 283.859375 78 284.957031 C 78 285.757812 78.398438 286.554688 79 286.753906 C 79.800781 286.957031 22 331.785156 7.898438 341.769531 C 5.601562 343.46875 4 345.363281 4 346.5625 C 4 348.460938 4.199219 348.359375 7.699219 345.964844 C 12 343.167969 13 342.867188 13 344.765625 C 13 345.5625 11 347.5625 8.5 349.359375 C 4.5 352.253906 4 352.953125 4 356.546875 C 4 358.644531 4.199219 360.441406 4.5 360.441406 C 5 360.441406 43.699219 331.1875 76.5 306.027344 C 99.398438 288.453125 106 283.761719 106 285.058594 C 106 287.253906 101.300781 299.4375 99 303.03125 C 95.601562 308.421875 86.800781 319.003906 85.898438 318.707031 C 85.398438 318.605469 85 319.105469 85 319.804688 C 85 320.503906 83.601562 322.398438 81.898438 324.097656 C 78.5 327.292969 71.601562 338.476562 70.5 342.46875 C 70.199219 343.867188 71.898438 341.171875 74.398438 336.476562 C 79.601562 326.894531 87 319.40625 93.398438 317.109375 C 98.800781 315.210938 115.800781 310.417969 119.300781 309.71875 C 121.601562 309.320312 122 309.621094 122 311.714844 C 122 313.414062 121.199219 314.511719 119.300781 315.3125 L 116.5 316.410156 L 119.699219 315.910156 C 122.199219 315.511719 123 315.808594 123.5 317.40625 C 123.800781 318.507812 125.898438 320.902344 128 322.898438 C 131.398438 325.996094 132.101562 327.292969 133.101562 332.984375 C 134.5 341.371094 139.699219 352.152344 144.601562 356.945312 C 148.601562 360.839844 162 367.929688 164.101562 367.230469 C 164.800781 367.03125 163.699219 365.832031 161.699219 364.535156 C 157 361.640625 149.601562 353.351562 145.898438 346.960938 C 144.300781 344.265625 143 341.570312 143 341.171875 C 143 340.773438 145 341.769531 147.5 343.46875 C 152.800781 347.0625 158.5 349.058594 165.300781 349.757812 C 170.699219 350.257812 172.601562 348.957031 167.699219 348.058594 C 166 347.761719 161.800781 346.164062 158.5 344.664062 C 150.601562 340.871094 140.800781 330.289062 142.5 327.492188 C 142.800781 326.894531 142.699219 326.492188 142.101562 326.492188 C 140.101562 326.492188 138 320.503906 138 314.710938 L 138 308.820312 L 142.300781 307.023438 C 144.601562 306.027344 146.699219 305.027344 147 304.828125 C 147.300781 304.628906 147.398438 308.722656 147.300781 313.714844 C 147.199219 323.296875 147.398438 323.199219 148.5 313.3125 C 148.898438 310.121094 149.601562 307.523438 150.101562 307.523438 C 151.300781 307.523438 157 317.609375 157 320.003906 C 157 321.101562 157.5 322.699219 158 323.5 C 158.800781 324.597656 158.898438 324.296875 158.398438 322.199219 C 157.898438 320.003906 158.101562 319.605469 159.300781 320.105469 C 160.699219 320.601562 160.699219 320.105469 159.5 315.609375 C 157.699219 308.722656 156.601562 298.539062 157.699219 298.539062 C 158.199219 298.539062 160.398438 301.132812 162.699219 304.226562 C 164.898438 307.421875 169.101562 312.617188 171.898438 315.808594 C 174.699219 319.003906 177 321.800781 177 322.101562 C 177 322.300781 175.699219 321.902344 174 321.003906 C 167.898438 317.808594 171.398438 321.601562 185.800781 333.78125 C 193.898438 340.671875 202.5 348.359375 205 350.957031 C 207.5 353.550781 210.699219 356.246094 212.101562 356.945312 C 215 358.542969 216.398438 362.835938 214.800781 365.734375 C 214.101562 367.128906 214.398438 368.128906 216.300781 370.027344 C 218.800781 372.523438 220.300781 376.117188 219.199219 376.816406 C 218.5 377.214844 202.398438 367.828125 199.199219 365.234375 C 197.898438 364.136719 197.800781 364.234375 198.5 365.433594 C 199.601562 367.230469 199.300781 366.832031 207.199219 376.714844 C 210.699219 381.109375 214.199219 385.902344 215 387.5 C 215.800781 389.097656 217.101562 390.394531 217.800781 390.394531 C 218.398438 390.394531 219 391.09375 219 391.890625 C 219 393.988281 217.199219 393.789062 213.601562 390.992188 L 210.5 388.699219 L 210.398438 390.992188 C 210.300781 392.390625 210.699219 393.089844 211.5 392.792969 C 212.199219 392.492188 214.199219 393.589844 215.898438 395.1875 L 219.101562 398.082031 L 218 410.863281 C 217.5 417.851562 217 427.238281 217 431.730469 C 217 436.222656 216.699219 441.515625 216.398438 443.511719 L 215.800781 447.207031 L 212.601562 442.613281 C 210.898438 440.117188 207.601562 436.722656 205.300781 435.027344 C 201.398438 432.230469 200.5 432.03125 193.199219 432.128906 C 181.800781 432.230469 169.101562 435.523438 153.5 442.3125 C 148.898438 444.3125 148.101562 444.410156 143.101562 443.210938 C 137.300781 441.816406 135.898438 440.21875 138.300781 437.523438 C 140.800781 434.726562 147 421.644531 149.898438 412.960938 C 151.398438 408.566406 153 403.972656 153.5 402.875 C 153.898438 401.777344 150.101562 404.871094 145 409.863281 L 135.800781 418.851562 L 136.5 413.859375 C 138.398438 400.078125 138.898438 394.089844 138.898438 385.402344 C 139 365.632812 136.398438 373.921875 134 401.378906 C 133.5 407.667969 132.800781 414.855469 132.601562 417.351562 C 132.199219 421.847656 131.300781 426.539062 130.300781 429.335938 C 129.898438 430.53125 129.601562 430.433594 129 428.835938 C 128.398438 427.539062 128.101562 429.234375 128.101562 434.027344 C 128 438.21875 127.601562 441.316406 127 441.316406 C 126.5 441.316406 126 440.21875 126 438.917969 C 126 437.621094 124.300781 434.226562 122.199219 431.429688 L 118.300781 426.339844 L 119.199219 419.648438 C 119.699219 415.855469 120.699219 412.359375 121.398438 411.863281 C 122.199219 411.261719 122.398438 410.164062 121.898438 408.867188 C 121.5 407.769531 121.398438 400.378906 121.699219 392.390625 C 122 384.402344 121.898438 373.421875 121.5 367.929688 L 120.800781 357.945312 L 118.398438 362.636719 C 117.101562 365.132812 115.199219 370.527344 114.199219 374.519531 C 113.101562 378.511719 111.800781 382.007812 111.300781 382.109375 C 110.101562 382.507812 110.101562 382.308594 107.101562 367.53125 C 105.601562 360.242188 104.199219 356.148438 102.5 354.050781 C 98.601562 349.058594 89.699219 340.074219 87.101562 338.375 L 84.699219 336.878906 L 87.398438 332.183594 C 89 329.589844 91.800781 326.09375 93.898438 324.398438 C 95.898438 322.699219 96.601562 321.800781 95.398438 322.300781 C 92.5 323.796875 86.699219 330.488281 85.199219 334.082031 C 84.5 335.78125 82.699219 337.578125 81.199219 338.175781 C 78.699219 339.175781 78.800781 339.273438 83.199219 339.375 C 87.699219 339.472656 88.101562 339.773438 95 347.160156 C 102.300781 355.050781 105 359.441406 105 363.636719 C 105 364.933594 106.398438 371.324219 108.101562 377.8125 C 110.300781 386.800781 111 391.492188 110.800781 396.785156 C 110.699219 400.679688 110.898438 407.367188 111.398438 411.761719 C 112 417.054688 111.898438 419.449219 111.199219 419.25 C 110.699219 419.050781 105.300781 414.257812 99.398438 408.667969 C 93.398438 403.074219 85.5 395.984375 81.898438 392.992188 C 76.101562 388.199219 75.199219 386.898438 73.5 381.410156 C 72.5 378.015625 70.300781 373.121094 68.699219 370.625 C 66 366.332031 65.800781 365.535156 66.398438 359.441406 C 66.800781 355.847656 67.398438 351.855469 67.699219 350.65625 C 68.101562 348.757812 65.300781 350.554688 54.398438 358.84375 C 32.601562 375.519531 5.800781 395.785156 4.800781 396.484375 C 4.199219 396.882812 4 397.882812 4.199219 398.882812 C 4.398438 400.378906 5.199219 400.078125 9.300781 396.984375 C 12 394.886719 14.800781 393.488281 15.5 393.789062 C 16.199219 393.988281 17 393.488281 17.300781 392.492188 C 17.699219 390.992188 62.898438 355.449219 64.398438 355.449219 C 64.699219 355.449219 64.398438 356.546875 63.800781 357.945312 C 63.199219 359.34375 59.5 362.835938 55.601562 365.832031 C 51.699219 368.726562 43.101562 375.316406 36.5 380.410156 C 29.898438 385.503906 19.898438 392.992188 14.300781 397.285156 C 5.601562 403.675781 4 405.273438 4 407.566406 C 4 409.164062 4.199219 410.363281 4.398438 410.363281 C 4.898438 410.363281 27.199219 393.589844 31.800781 389.796875 C 39.101562 383.804688 43 381.410156 43 382.804688 C 43 383.605469 39.398438 387.199219 35 390.792969 L 27 397.484375 L 27 404.671875 C 27.101562 408.667969 27.699219 414.558594 28.5 417.753906 C 29.699219 422.945312 29.699219 424.140625 28.398438 426.839844 C 27.601562 428.535156 25.601562 430.730469 24 431.730469 C 22.300781 432.628906 19.601562 434.726562 17.898438 436.222656 C 16.199219 437.820312 13.601562 439.71875 12.199219 440.417969 C 8.398438 442.414062 4 446.90625 4 448.804688 C 4 450.101562 4.398438 450.203125 6.300781 449.203125 C 7.5 448.503906 8.699219 447.707031 9 447.304688 C 10.199219 445.707031 23.398438 436.324219 23.800781 436.824219 C 24.898438 437.921875 20.5 442.414062 12.601562 448.40625 C 5.5 453.695312 4.101562 455.292969 4 457.492188 C 4 459.089844 4.300781 460.285156 4.601562 460.285156 C 5 460.285156 8.101562 457.988281 11.601562 455.292969 C 15.101562 452.5 18.5 450.300781 19.199219 450.300781 C 20.101562 450.300781 20.199219 450.601562 19.398438 451.101562 C 18.800781 451.5 17.5 454.296875 16.5 457.292969 C 15.5 460.285156 12.699219 467.675781 10.300781 473.765625 C 8 479.757812 6 485.046875 6 485.347656 C 6 485.746094 36.699219 485.847656 74.199219 485.648438 C 127.800781 485.347656 142.5 485.046875 143.199219 484.050781 C 143.800781 483.152344 144.199219 483.050781 144.800781 483.851562 C 145.5 484.949219 199.898438 485.847656 243.101562 485.449219 L 261.601562 485.246094 L 263.300781 482.050781 C 264.300781 480.253906 266.898438 476.460938 269.101562 473.765625 C 271.300781 470.96875 274.5 466.078125 276.199219 462.78125 C 279.199219 456.890625 279.5 455.695312 279.800781 446.007812 C 279.898438 443.3125 280.398438 441.414062 280.898438 441.816406 C 281.398438 442.113281 282.101562 441.914062 282.5 441.316406 C 282.800781 440.816406 282.398438 440.316406 281.601562 440.316406 C 280.699219 440.316406 279.300781 439.21875 278.398438 437.820312 C 277.5 436.421875 275.800781 435.324219 274.601562 435.324219 C 271.398438 435.425781 260.800781 438.621094 258 440.417969 C 256.601562 441.316406 253.398438 443.210938 250.800781 444.609375 C 248.300781 446.109375 244.101562 448.902344 241.601562 450.800781 C 239.101562 452.699219 237 453.996094 236.898438 453.496094 C 236.800781 453.097656 236.898438 451.5 237 449.800781 C 237.199219 447.40625 236.898438 447.105469 235.800781 448.105469 C 234.601562 449.105469 234.300781 446.707031 234.300781 431.53125 C 234.199219 413.757812 233.398438 404.375 231.898438 403.375 C 230 402.078125 232.398438 395.488281 236.101562 391.394531 C 240.601562 386.5 240.699219 385.101562 236.199219 388.898438 C 234.601562 390.292969 233 391.394531 232.699219 391.394531 C 232.398438 391.394531 231.898438 389.695312 231.5 387.5 C 231 384.203125 231.398438 382.90625 234.398438 378.113281 C 236.398438 375.019531 238.800781 372.324219 239.898438 371.921875 C 241.699219 371.324219 243.699219 368.429688 242.199219 368.429688 C 241.800781 368.429688 239 370.027344 236 371.921875 L 230.5 375.417969 L 229.699219 372.722656 C 229.300781 371.125 228.800781 366.433594 228.699219 362.238281 C 228.5 354.949219 228.601562 354.449219 231.601562 351.253906 C 236 346.5625 240.300781 340.472656 239.699219 339.875 C 239.398438 339.574219 237.398438 340.871094 235.199219 342.867188 C 233.101562 344.867188 231 346.164062 230.601562 345.765625 C 230.300781 345.464844 230 342.867188 230 339.972656 C 230 334.78125 231.300781 332.285156 233.5 333.082031 C 234.300781 333.382812 235.800781 331.085938 237.601562 327.09375 C 240.398438 320.503906 242 319.503906 242 324.199219 C 242 328.191406 248.699219 347.261719 252.699219 354.449219 C 254.699219 358.042969 259.101562 365.234375 262.5 370.425781 C 265.898438 375.617188 270.601562 383.40625 272.898438 387.597656 L 277.199219 395.386719 L 266.300781 395.585938 L 255.5 395.785156 L 266 396.085938 C 274.398438 396.386719 276.800781 396.785156 277.800781 398.082031 C 278.398438 398.980469 279 399.980469 279 400.28125 C 279 401.378906 249.5 400.878906 248.800781 399.878906 C 247.398438 398.082031 248 397.484375 251.800781 397.085938 L 255.5 396.683594 L 251.300781 396.585938 C 246.5 396.386719 246.300781 396.683594 248.601562 402.277344 L 250.199219 406.269531 L 265.699219 406.070312 L 281.300781 405.871094 L 284.300781 414.359375 C 288.398438 425.941406 288.601562 435.625 284.699219 446.808594 C 281.199219 456.792969 276.101562 466.875 270.601562 474.765625 C 268.300781 478.058594 266.300781 481.851562 266.199219 483.25 L 265.898438 485.746094 L 284.101562 486.046875 L 302.300781 486.347656 L 317.699219 474.5625 C 326.199219 468.074219 333.800781 462.285156 334.601562 461.585938 C 335.5 460.984375 336 459.289062 335.800781 457.890625 C 335.5 455.292969 335.5 455.292969 328.101562 460.785156 C 323.800781 464.082031 320.101562 466.175781 319.300781 465.777344 C 318.300781 465.476562 318 465.777344 318.300781 466.578125 C 318.800781 468.074219 305.398438 478.957031 304.300781 477.957031 C 302.898438 476.460938 305.800781 473.765625 320.398438 462.683594 C 330.300781 455.195312 336 450.203125 336 449.105469 C 336 448.105469 335.800781 447.304688 335.601562 447.304688 C 335.398438 447.304688 328.5 452.5 320.398438 458.789062 L 305.5 470.269531 L 305.199219 466.675781 C 304.898438 463.78125 305.5 462.382812 307.800781 459.886719 C 314.601562 452.597656 315.699219 447.40625 312 438.820312 C 309.101562 432.03125 309.398438 430.933594 315.300781 426.636719 C 318.199219 424.542969 324 420.148438 328.300781 416.855469 C 335.5 411.261719 336 410.664062 336 407.070312 C 336 402.476562 337.300781 401.875 319.800781 415.054688 C 309.101562 423.042969 306 424.941406 306 423.445312 C 306 422.34375 307.800781 420.046875 310 418.351562 C 312.199219 416.652344 314 415.65625 314 416.253906 C 314 416.855469 314.5 417.351562 315.101562 417.351562 C 315.699219 417.351562 316 416.652344 315.601562 415.855469 C 315.300781 414.855469 316.699219 413.160156 319.800781 410.863281 C 333.5 400.777344 335.898438 398.78125 335.898438 397.085938 C 336 396.1875 335.800781 395.386719 335.5 395.386719 C 335.199219 395.386719 330.5 398.882812 325 403.074219 C 317.300781 408.964844 314.699219 410.464844 313.800781 409.566406 C 312 407.769531 310.601562 408.167969 312.101562 409.964844 C 313.199219 411.363281 312.898438 411.960938 310 414.457031 C 305.699219 417.953125 304 418.050781 304 414.957031 C 304 413.660156 304.601562 412.359375 305.300781 412.0625 C 306.300781 411.761719 306.300781 411.164062 305.300781 409.464844 C 304.601562 408.367188 304 404.972656 304 401.875 C 304 398.78125 303.101562 394.089844 302 391.195312 C 300.101562 386.203125 300.101562 385.800781 301.699219 384.605469 C 311.800781 377.414062 335.300781 358.945312 335.699219 357.84375 C 335.898438 357.144531 336 355.847656 335.800781 354.851562 C 335.601562 353.652344 330.800781 356.847656 316.699219 367.53125 C 306.300781 375.417969 297.398438 381.90625 296.800781 381.90625 C 293.300781 381.90625 297.101562 378.3125 315.5 364.433594 C 333.5 350.855469 336 348.660156 336 346.164062 C 336 343.667969 335.800781 343.46875 334.199219 344.664062 C 333.199219 345.363281 325.101562 351.554688 316.101562 358.445312 C 307.199219 365.332031 298.699219 371.722656 297.398438 372.722656 L 295 374.621094 L 295 371.324219 C 295 366.03125 293.898438 368.726562 293.5 375.019531 C 292.898438 384.503906 292 392.792969 291.398438 394.589844 C 290.898438 396.386719 289 397.085938 289 395.585938 C 289 395.1875 286.800781 392.292969 284.199219 389.097656 L 279.398438 383.40625 L 279.101562 374.71875 C 279 369.828125 278.5 363.238281 278.101562 359.941406 C 277.300781 354.449219 277.300781 354.351562 277.101562 358.144531 C 276.898438 364.933594 274.101562 363.136719 273.898438 356.148438 C 273.898438 354.351562 273.300781 351.253906 272.699219 349.058594 C 271.699219 345.765625 271.5 347.0625 271.800781 358.042969 C 272.101562 366.132812 271.800781 370.527344 271.199219 369.925781 C 269.898438 368.527344 264.5 355.050781 262.5 347.960938 C 260.898438 342.371094 257 322.300781 257.398438 321.800781 C 257.5 321.703125 261.398438 323.597656 266 325.996094 C 270.699219 328.390625 275.101562 330.488281 275.800781 330.488281 C 276.5 330.488281 272.898438 328.390625 267.898438 325.792969 C 259.300781 321.300781 255.699219 318.40625 257.199219 317.007812 C 257.5 316.707031 260.898438 318.40625 264.601562 320.800781 C 270.898438 324.894531 282 330.886719 282 330.289062 C 282 330.089844 281.300781 323.699219 280.5 316.109375 C 279.699219 308.523438 279.300781 301.832031 279.601562 301.433594 C 280.101562 300.535156 328.898438 263.09375 333.199219 260.296875 C 336.300781 258.199219 337.300781 252.609375 334.5 252.609375 C 333.699219 252.609375 333 253.007812 333 253.507812 C 333 254.40625 327.699219 258.699219 302 278.269531 C 282.101562 293.445312 279.199219 295.542969 278.601562 295.542969 C 278.300781 295.542969 278 294.742188 278 293.746094 C 278.101562 292.148438 300.5 274.375 305.398438 272.078125 C 306.601562 271.578125 307.800781 270.582031 308.199219 269.980469 C 308.601562 269.382812 315 264.191406 322.5 258.597656 C 331.300781 251.910156 336 247.714844 336 246.519531 C 336 243.921875 333.5 245.121094 328.5 249.8125 C 326.398438 251.910156 324.101562 253.605469 323.398438 253.605469 C 322.699219 253.605469 322 253.90625 321.800781 254.40625 C 321.199219 255.804688 307.601562 265.886719 306.300781 265.886719 C 305.601562 265.886719 305 266.386719 305 266.984375 C 304.898438 267.984375 281.101562 286.554688 278.800781 287.453125 C 277.101562 288.054688 278.300781 254.304688 280.101562 251.808594 C 281.398438 249.8125 311.398438 226.148438 317.5 222.253906 C 319.101562 221.15625 321.199219 219.558594 322.101562 218.761719 C 323.101562 217.863281 326.601562 215.167969 329.898438 212.671875 C 335 208.875 335.898438 207.679688 336 204.980469 L 336 201.789062 L 326.300781 209.175781 C 321 213.167969 316.199219 216.265625 315.800781 216.066406 C 315.300781 215.765625 315.101562 215.964844 315.199219 216.464844 C 315.5 217.5625 281.101562 244.023438 280.300781 243.324219 C 279.101562 242.023438 282.898438 238.332031 295.199219 228.945312 C 302.5 223.253906 314.101562 214.367188 321 209.074219 C 327.898438 203.882812 334.101562 199.191406 334.800781 198.792969 C 335.601562 198.390625 336 197.09375 335.800781 195.996094 C 335.601562 194.398438 331 197.492188 309 214.269531 C 294.398438 225.449219 282.199219 234.636719 281.898438 234.636719 C 280.5 234.636719 285 214.167969 289.898438 198.09375 L 292.101562 191.003906 L 314 174.328125 C 333.898438 159.253906 336 157.355469 336 154.761719 L 336 151.765625 L 327.300781 158.554688 C 310.601562 171.535156 294.5 183.515625 294.199219 183.214844 C 292.699219 181.71875 297.5 177.125 312.601562 165.644531 C 322.199219 158.253906 331.398438 151.367188 333 150.265625 C 334.601562 149.167969 336 147.472656 336 146.472656 C 336 144.277344 335.101562 144.277344 332.601562 146.574219 C 328.898438 149.867188 297.101562 173.730469 296.398438 173.730469 C 296.101562 173.730469 296.101562 172.632812 296.398438 171.335938 C 297.5 166.839844 300 146.972656 299.800781 144.175781 C 299.199219 135.589844 298.699219 136.289062 318 121.8125 L 335.898438 108.332031 L 335.898438 103.9375 C 336 100.644531 335.699219 99.84375 334.800781 100.644531 C 320.300781 112.226562 300.398438 126.605469 299.699219 125.90625 C 298.199219 124.40625 299.300781 123.410156 314.300781 112.125 C 334.898438 96.648438 336 95.75 336 93.554688 C 336 91.65625 335.898438 91.65625 334.199219 93.15625 C 333.199219 94.152344 332 94.851562 331.5 94.851562 C 331.101562 94.851562 330.199219 95.453125 329.601562 96.152344 C 328.398438 97.648438 299.398438 119.8125 298.699219 119.8125 C 298.199219 119.8125 296.898438 112.125 296.898438 109.332031 C 296.898438 108.230469 296.601562 107.132812 296.101562 106.835938 C 295.699219 106.535156 294.601562 104.238281 293.800781 101.742188 C 292.398438 97.546875 292.398438 97.050781 293.898438 96.152344 C 295.300781 95.152344 295.300781 95.050781 293.601562 95.152344 C 291 95.453125 289.300781 92.457031 290.800781 90.558594 C 291.5 89.761719 299.199219 83.671875 307.898438 77.082031 L 323.800781 65 L 330.101562 64.601562 C 333.601562 64.398438 321.199219 64.199219 302.5 64.101562 C 271.5 63.902344 268.101562 63.703125 264.5 62.003906 C 259.601562 59.707031 249.300781 56.3125 239.699219 53.816406 C 231.300781 51.621094 208.898438 50.621094 196.5 51.917969 Z M 302.5 65.796875 C 301.898438 66.398438 297.300781 69.992188 292.101562 73.785156 C 283.199219 80.476562 282.601562 80.773438 281.398438 78.976562 C 280.601562 77.980469 277 74.382812 273.398438 70.988281 L 266.699219 64.898438 L 285.101562 64.898438 C 296.601562 64.898438 303 65.296875 302.5 65.796875 Z M 313.5 66.796875 C 310.5 69.792969 287.699219 86.867188 286.800781 86.867188 C 284 86.867188 287.300781 83.070312 295.300781 76.980469 C 300.300781 73.085938 305.898438 68.792969 307.5 67.496094 C 309.199219 66.097656 311.601562 65 313 64.898438 C 315.398438 64.898438 315.398438 64.898438 313.5 66.796875 Z M 158.398438 157.753906 C 159.800781 160.453125 161 162.949219 161 163.246094 C 161 164.046875 157.300781 163.847656 154.601562 162.847656 C 152.300781 161.949219 152.199219 161.648438 153.199219 158.554688 C 153.800781 156.757812 154.398438 154.660156 154.601562 153.960938 C 155.101562 151.964844 155.699219 152.464844 158.398438 157.753906 Z M 241.5 162.847656 C 241.898438 164.144531 241.699219 165.34375 241 165.742188 C 240 166.34375 240.199219 166.640625 241.5 166.839844 C 242.398438 167.042969 243.800781 168.9375 244.601562 171.234375 C 246.699219 177.324219 246.5 177.625 242.300781 176.625 C 240.199219 176.125 236.800781 175.726562 234.800781 175.726562 C 232.800781 175.726562 230.898438 175.328125 230.601562 174.828125 C 230.101562 174.128906 233.898438 168.140625 235.800781 166.839844 C 236.199219 166.542969 237.101562 165.042969 237.699219 163.445312 C 239.199219 160.25 240.601562 159.953125 241.5 162.847656 Z M 155.5 174.828125 C 157.699219 179.621094 159.800781 180.71875 161.5 178.324219 C 163.101562 176.226562 167.601562 177.125 169.300781 179.820312 C 170 180.917969 171.300781 181.71875 172.398438 181.71875 C 173.5 181.71875 174 181.417969 173.699219 181.019531 C 172.898438 180.320312 176 177.824219 177.699219 177.722656 C 178.300781 177.722656 179.101562 178.625 179.5 179.621094 C 180.199219 181.917969 183 181.320312 183 178.921875 C 183 175.527344 185.101562 179.523438 186.898438 186.710938 C 188.898438 194.097656 188.898438 194.199219 189 189.707031 C 189.101562 187.210938 189.101562 183.414062 189 181.21875 L 188.898438 177.226562 L 191.699219 180.71875 C 193.199219 182.617188 196.300781 186.210938 198.5 188.609375 L 202.5 193 L 203 190.105469 C 203.699219 186.113281 206.699219 185.710938 208.101562 189.40625 L 209.300781 192.203125 L 210.398438 187.707031 C 211.5 183.515625 213.800781 182.019531 213.199219 186.011719 C 212.898438 187.410156 213.398438 187.210938 215.398438 185.210938 C 218.101562 182.515625 220 182.019531 220 183.914062 C 220.101562 184.613281 221.199219 186.511719 222.5 188.207031 C 224.898438 191.105469 225.101562 191.105469 227.699219 189.605469 C 231.300781 187.707031 236.101562 188.308594 236.699219 190.703125 C 237 191.800781 237.800781 192.300781 238.601562 192.003906 C 239.699219 191.601562 239.800781 191.105469 239 190.207031 C 237.699219 188.609375 239.101562 187.410156 241.398438 188.308594 C 242.398438 188.707031 243.300781 188.007812 244.101562 186.3125 C 245.398438 183.617188 249 182.714844 249 185.113281 C 249 185.8125 248 187.609375 246.898438 189.105469 C 245.699219 190.605469 245.101562 192.101562 245.5 192.5 C 245.898438 192.902344 246.5 192.601562 246.699219 192.003906 C 247 191.304688 248.101562 189.707031 249.101562 188.507812 L 251.101562 186.210938 L 250.5 189.207031 C 250.101562 190.804688 249.5 195.894531 249 200.289062 C 247.699219 212.570312 246 220.160156 243.601562 223.851562 C 237 234.4375 208.5 253.207031 196.300781 255.203125 C 192.601562 255.804688 191.699219 255.402344 187.300781 252.109375 C 178.199219 245.21875 165.199219 232.640625 160.101562 225.949219 C 155.699219 219.957031 149 205.878906 149 202.484375 C 149 201.789062 150.101562 202.484375 151.5 204.183594 L 154.101562 207.179688 L 152.398438 203.183594 C 149.699219 196.496094 148.898438 191.503906 149.199219 182.117188 L 149.5 173.230469 L 151.199219 176.226562 C 153 179.421875 153.699219 177.925781 152 174.628906 C 150.898438 172.730469 151.398438 170.734375 152.800781 170.734375 C 153.199219 170.734375 154.398438 172.632812 155.5 174.828125 Z M 166.898438 173.03125 C 168.199219 174.628906 167.398438 175.726562 164.800781 175.726562 C 163 175.726562 162.300781 173.730469 163.699219 172.433594 C 164.699219 171.433594 165.601562 171.632812 166.898438 173.03125 Z M 279.5 180.71875 C 279.800781 181.21875 279.601562 181.71875 279.101562 181.71875 C 278.5 181.71875 278 181.21875 278 180.71875 C 278 180.121094 278.199219 179.722656 278.398438 179.722656 C 278.699219 179.722656 279.199219 180.121094 279.5 180.71875 Z M 235 185.3125 C 235 186.3125 234.300781 186.710938 232.800781 186.511719 C 229.601562 186.011719 229.300781 183.714844 232.398438 183.714844 C 234.101562 183.714844 235 184.214844 235 185.3125 Z M 280 191.203125 C 280 195.097656 279.199219 198.191406 277.300781 202.1875 C 275.800781 205.183594 274.199219 207.679688 273.800781 207.679688 C 272.101562 207.679688 273.101562 203.484375 275.601562 199.691406 C 277.398438 196.996094 278.101562 194.699219 278 192.003906 C 277.601562 186.808594 277.800781 185.710938 279 185.710938 C 279.601562 185.710938 280 188.207031 280 191.203125 Z M 227 187.707031 C 227 188.207031 226.800781 188.707031 226.601562 188.707031 C 226.300781 188.707031 225.800781 188.207031 225.5 187.707031 C 225.199219 187.109375 225.398438 186.710938 225.898438 186.710938 C 226.5 186.710938 227 187.109375 227 187.707031 Z M 173 269.78125 C 176 281.761719 179.300781 290.648438 182.5 295.542969 L 186.101562 301.035156 L 185.601562 296.539062 C 184.398438 286.957031 182.898438 266.289062 183.398438 265.886719 C 183.601562 265.6875 185.699219 268.085938 188.101562 271.28125 C 190.398438 274.472656 194.5 279.566406 197.199219 282.460938 C 199.800781 285.457031 202 288.851562 202 289.851562 C 202 290.847656 199.5 299.335938 196.398438 308.621094 L 190.898438 325.496094 L 187.699219 323.796875 C 179.398438 319.105469 162.300781 298.835938 158.101562 288.753906 C 156.800781 285.65625 156.898438 285.359375 162.101562 279.066406 C 165 275.472656 167.699219 272.578125 168.101562 272.578125 C 168.5 272.578125 169.398438 270.980469 170 269.082031 C 170.601562 267.1875 171.300781 265.589844 171.5 265.589844 C 171.800781 265.589844 172.398438 267.484375 173 269.78125 Z M 110 271.679688 C 110 273.574219 109.601562 274.472656 108.898438 274.074219 C 108.300781 273.675781 106.898438 274.273438 105.699219 275.273438 C 104.5 276.371094 95.898438 283.0625 86.5 290.050781 C 77.199219 297.140625 65.199219 306.226562 60 310.21875 C 26.5 335.980469 15.898438 343.667969 14.398438 343.066406 C 12.699219 342.371094 13.398438 340.472656 15.5 340.472656 C 16.199219 340.472656 17 340.074219 17.199219 339.574219 C 17.300781 338.972656 27.898438 330.6875 40.5 321.101562 C 53.199219 311.417969 66.398438 301.332031 70 298.539062 C 86.101562 286.257812 109.398438 268.582031 109.699219 268.582031 C 109.898438 268.582031 110 269.980469 110 271.679688 Z M 214.5 291.746094 C 208.601562 293.144531 207 291.449219 209.101562 285.957031 L 210.101562 283.160156 L 213.800781 287.054688 L 217.5 291.046875 Z M 147.800781 301.53125 C 147.5 302.832031 140.601562 307.421875 138.800781 307.523438 C 138.300781 307.523438 138 306.226562 138 304.628906 C 138 302.628906 138.601562 301.433594 139.898438 301.035156 C 140.898438 300.734375 142.601562 299.535156 143.601562 298.4375 C 145.300781 296.539062 145.5 296.441406 146.699219 298.238281 C 147.5 299.234375 147.898438 300.632812 147.800781 301.53125 Z M 214.398438 316.109375 C 215.300781 316.910156 216.101562 318.605469 216.101562 319.804688 C 216.199219 321.5 216.300781 321.601562 216.699219 320.203125 C 217.300781 318.105469 217.5 318.105469 220.5 320.105469 C 223.699219 322.199219 223.699219 323.996094 220.5 326.09375 C 216 329.089844 214.101562 327.191406 211.601562 317.207031 C 210.898438 314.210938 212 313.714844 214.398438 316.109375 Z M 207.699219 331.386719 C 209.398438 332.085938 211.199219 333.382812 211.601562 334.28125 C 212.398438 336.277344 212.699219 342.46875 212 342.46875 C 210.101562 342.269531 195.398438 333.382812 195.199219 332.285156 C 195 331.484375 195.398438 329.589844 195.898438 328.089844 L 197 325.496094 L 200.699219 327.792969 C 202.800781 329.089844 205.898438 330.6875 207.699219 331.386719 Z M 218.800781 361.238281 C 219.199219 363.734375 217.5 364.234375 216.601562 361.839844 C 215.699219 359.34375 215.898438 358.246094 217.300781 358.644531 C 217.898438 358.945312 218.601562 360.042969 218.800781 361.238281 Z M 56 373.519531 C 55.300781 374.621094 54.601562 375.316406 54.300781 375.019531 C 53.5 374.21875 54.800781 371.425781 56 371.425781 C 56.699219 371.425781 56.699219 372.023438 56 373.519531 Z M 67.398438 381.308594 C 67.300781 381.410156 66.699219 381.308594 66.101562 380.910156 C 64.898438 380.210938 64.601562 374.121094 65.800781 373.023438 C 66.398438 372.324219 68.101562 380.511719 67.398438 381.308594 Z M 234.601562 456.09375 C 233.5 457.089844 233.101562 455.695312 233.800781 453.296875 L 234.5 450.800781 L 234.800781 453.097656 C 235 454.394531 234.898438 455.695312 234.601562 456.09375 Z M 234.601562 456.09375 "/>
<path style=" stroke:none;fill-rule:nonzero;fill:rgb(0%,0%,0%);fill-opacity:1;" d="M 228 192.703125 C 228 193.199219 228.5 193.699219 229 193.699219 C 229.601562 193.699219 230 193.199219 230 192.703125 C 230 192.101562 229.601562 191.703125 229 191.703125 C 228.5 191.703125 228 192.101562 228 192.703125 Z M 228 192.703125 "/>
<path style=" stroke:none;fill-rule:nonzero;fill:rgb(0%,0%,0%);fill-opacity:1;" d="M 186 218.261719 C 186 219.058594 186.5 219.460938 187 219.160156 C 187.601562 218.761719 187.800781 218.0625 187.5 217.5625 C 186.601562 216.164062 186 216.464844 186 218.261719 Z M 186 218.261719 "/>
<path style=" stroke:none;fill-rule:nonzero;fill:rgb(0%,0%,0%);fill-opacity:1;" d="M 74 70.988281 C 74 71.488281 74.5 71.6875 75 71.390625 C 75.601562 71.089844 76 70.589844 76 70.292969 C 76 70.089844 75.601562 69.890625 75 69.890625 C 74.5 69.890625 74 70.390625 74 70.988281 Z M 74 70.988281 "/>
<path style=" stroke:none;fill-rule:nonzero;fill:rgb(0%,0%,0%);fill-opacity:1;" d="M 142.5 73.886719 C 142.800781 74.382812 143.300781 74.882812 143.601562 74.882812 C 143.800781 74.882812 144 74.382812 144 73.886719 C 144 73.285156 143.5 72.886719 142.898438 72.886719 C 142.398438 72.886719 142.199219 73.285156 142.5 73.886719 Z M 142.5 73.886719 "/>
<path style=" stroke:none;fill-rule:nonzero;fill:rgb(0%,0%,0%);fill-opacity:1;" d="M 69.5 75.882812 C 69.800781 76.382812 70.300781 76.878906 70.601562 76.878906 C 70.800781 76.878906 71 76.382812 71 75.882812 C 71 75.285156 70.5 74.882812 69.898438 74.882812 C 69.398438 74.882812 69.199219 75.285156 69.5 75.882812 Z M 69.5 75.882812 "/>
<path style=" stroke:none;fill-rule:nonzero;fill:rgb(0%,0%,0%);fill-opacity:1;" d="M 328 86.765625 C 328 87.265625 328.5 88.0625 329 88.363281 C 329.601562 88.664062 330 88.5625 330 87.964844 C 330 87.464844 329.601562 86.664062 329 86.367188 C 328.5 86.066406 328 86.167969 328 86.765625 Z M 328 86.765625 "/>
<path style=" stroke:none;fill-rule:nonzero;fill:rgb(0%,0%,0%);fill-opacity:1;" d="M 306 87.765625 C 306 88.261719 306.5 89.0625 307 89.363281 C 307.601562 89.660156 308 89.5625 308 88.960938 C 308 88.460938 307.601562 87.664062 307 87.363281 C 306.5 87.066406 306 87.164062 306 87.765625 Z M 306 87.765625 "/>
<path style=" stroke:none;fill-rule:nonzero;fill:rgb(0%,0%,0%);fill-opacity:1;" d="M 115 88.863281 C 115 89.363281 115.5 89.859375 116.101562 89.859375 C 116.601562 89.859375 116.800781 89.363281 116.5 88.863281 C 116.199219 88.261719 115.699219 87.863281 115.398438 87.863281 C 115.199219 87.863281 115 88.261719 115 88.863281 Z M 115 88.863281 "/>
<path style=" stroke:none;fill-rule:nonzero;fill:rgb(0%,0%,0%);fill-opacity:1;" d="M 107 93.355469 C 107 94.253906 107.898438 94.851562 109.101562 94.851562 C 110.898438 94.851562 111 94.652344 110 93.355469 C 109.300781 92.554688 108.398438 91.859375 107.898438 91.859375 C 107.398438 91.859375 107 92.554688 107 93.355469 Z M 107 93.355469 "/>
<path style=" stroke:none;fill-rule:nonzero;fill:rgb(0%,0%,0%);fill-opacity:1;" d="M 300 94.851562 C 300 95.351562 300.5 95.851562 301 95.851562 C 301.601562 95.851562 302 95.351562 302 94.851562 C 302 94.253906 301.601562 93.855469 301 93.855469 C 300.5 93.855469 300 94.253906 300 94.851562 Z M 300 94.851562 "/>
<path style=" stroke:none;fill-rule:nonzero;fill:rgb(0%,0%,0%);fill-opacity:1;" d="M 306.800781 96.550781 C 307.5 96.851562 308.398438 96.75 308.699219 96.449219 C 309.101562 96.152344 308.5 95.851562 307.398438 95.953125 C 306.300781 95.953125 306 96.25 306.800781 96.550781 Z M 306.800781 96.550781 "/>
<path style=" stroke:none;fill-rule:nonzero;fill:rgb(0%,0%,0%);fill-opacity:1;" d="M 306 100.945312 C 306 101.441406 306.5 101.640625 307 101.34375 C 307.601562 101.042969 308 100.542969 308 100.246094 C 308 100.042969 307.601562 99.84375 307 99.84375 C 306.5 99.84375 306 100.34375 306 100.945312 Z M 306 100.945312 "/>
<path style=" stroke:none;fill-rule:nonzero;fill:rgb(0%,0%,0%);fill-opacity:1;" d="M 300 101.84375 C 299.199219 102.339844 299 102.839844 299.5 102.839844 C 300.101562 102.839844 301.199219 102.339844 302 101.84375 C 302.800781 101.34375 303.101562 100.84375 302.5 100.84375 C 302 100.84375 300.800781 101.34375 300 101.84375 Z M 300 101.84375 "/>
<path style=" stroke:none;fill-rule:nonzero;fill:rgb(0%,0%,0%);fill-opacity:1;" d="M 115.601562 103.339844 C 116 104.136719 116.601562 104.539062 117.101562 104.238281 C 118.199219 103.640625 117.300781 101.84375 116 101.84375 C 115.5 101.84375 115.300781 102.542969 115.601562 103.339844 Z M 115.601562 103.339844 "/>
<path style=" stroke:none;fill-rule:nonzero;fill:rgb(0%,0%,0%);fill-opacity:1;" d="M 17 108.832031 C 17 109.332031 17.5 109.828125 18 109.828125 C 18.601562 109.828125 19 109.332031 19 108.832031 C 19 108.230469 18.601562 107.832031 18 107.832031 C 17.5 107.832031 17 108.230469 17 108.832031 Z M 17 108.832031 "/>
<path style=" stroke:none;fill-rule:nonzero;fill:rgb(0%,0%,0%);fill-opacity:1;" d="M 91 109.828125 C 91 110.328125 91.5 110.828125 92 110.828125 C 92.601562 110.828125 93 110.328125 93 109.828125 C 93 109.230469 92.601562 108.832031 92 108.832031 C 91.5 108.832031 91 109.230469 91 109.828125 Z M 91 109.828125 "/>
<path style=" stroke:none;fill-rule:nonzero;fill:rgb(0%,0%,0%);fill-opacity:1;" d="M 33 112.824219 C 33 113.324219 33.5 113.824219 34.101562 113.824219 C 34.601562 113.824219 34.800781 113.324219 34.5 112.824219 C 34.199219 112.226562 33.699219 111.828125 33.398438 111.828125 C 33.199219 111.828125 33 112.226562 33 112.824219 Z M 33 112.824219 "/>
<path style=" stroke:none;fill-rule:nonzero;fill:rgb(0%,0%,0%);fill-opacity:1;" d="M 23.5 121.8125 C 23.199219 122.308594 23.601562 122.808594 24.5 122.808594 C 25.398438 122.808594 25.800781 122.308594 25.5 121.8125 C 25.199219 121.210938 24.699219 120.8125 24.5 120.8125 C 24.300781 120.8125 23.800781 121.210938 23.5 121.8125 Z M 23.5 121.8125 "/>
<path style=" stroke:none;fill-rule:nonzero;fill:rgb(0%,0%,0%);fill-opacity:1;" d="M 118 123.90625 C 118 124.40625 118.5 124.605469 119 124.308594 C 119.601562 124.007812 120 123.507812 120 123.207031 C 120 123.007812 119.601562 122.808594 119 122.808594 C 118.5 122.808594 118 123.308594 118 123.90625 Z M 118 123.90625 "/>
<path style=" stroke:none;fill-rule:nonzero;fill:rgb(0%,0%,0%);fill-opacity:1;" d="M 49 142.679688 C 49 143.777344 51.601562 144.875 52.398438 144.078125 C 53.601562 142.878906 52.898438 141.78125 51 141.78125 C 49.898438 141.78125 49 142.179688 49 142.679688 Z M 49 142.679688 "/>
<path style=" stroke:none;fill-rule:nonzero;fill:rgb(0%,0%,0%);fill-opacity:1;" d="M 50.5 146.773438 C 50.800781 147.273438 51.300781 147.769531 51.601562 147.769531 C 51.800781 147.769531 52 147.273438 52 146.773438 C 52 146.171875 51.5 145.773438 50.898438 145.773438 C 50.398438 145.773438 50.199219 146.171875 50.5 146.773438 Z M 50.5 146.773438 "/>
<path style=" stroke:none;fill-rule:nonzero;fill:rgb(0%,0%,0%);fill-opacity:1;" d="M 314 146.773438 C 314 147.273438 314.5 147.769531 315 147.769531 C 315.601562 147.769531 316 147.273438 316 146.773438 C 316 146.171875 315.601562 145.773438 315 145.773438 C 314.5 145.773438 314 146.171875 314 146.773438 Z M 314 146.773438 "/>
<path style=" stroke:none;fill-rule:nonzero;fill:rgb(0%,0%,0%);fill-opacity:1;" d="M 318 148.667969 C 318 149.167969 318.5 149.96875 319 150.265625 C 319.601562 150.566406 320 150.464844 320 149.867188 C 320 149.367188 319.601562 148.570312 319 148.269531 C 318.5 147.96875 318 148.070312 318 148.667969 Z M 318 148.667969 "/>
<path style=" stroke:none;fill-rule:nonzero;fill:rgb(0%,0%,0%);fill-opacity:1;" d="M 15 151.765625 C 15 152.265625 15.5 152.761719 16 152.761719 C 16.601562 152.761719 17 152.265625 17 151.765625 C 17 151.164062 16.601562 150.765625 16 150.765625 C 15.5 150.765625 15 151.164062 15 151.765625 Z M 15 151.765625 "/>
<path style=" stroke:none;fill-rule:nonzero;fill:rgb(0%,0%,0%);fill-opacity:1;" d="M 114.5 154.761719 C 114.898438 155.359375 115.601562 155.558594 116.101562 155.257812 C 117.5 154.359375 117.199219 153.761719 115.398438 153.761719 C 114.601562 153.761719 114.199219 154.261719 114.5 154.761719 Z M 114.5 154.761719 "/>
<path style=" stroke:none;fill-rule:nonzero;fill:rgb(0%,0%,0%);fill-opacity:1;" d="M 17.5 155.660156 C 17.199219 156.15625 17.398438 156.855469 18 157.257812 C 18.5 157.554688 19 157.15625 19 156.359375 C 19 154.558594 18.398438 154.261719 17.5 155.660156 Z M 17.5 155.660156 "/>
<path style=" stroke:none;fill-rule:nonzero;fill:rgb(0%,0%,0%);fill-opacity:1;" d="M 23 167.839844 C 23 168.339844 23.898438 168.738281 25 168.738281 C 26.101562 168.738281 27 168.539062 27 168.339844 C 27 168.140625 26.101562 167.738281 25 167.441406 C 23.898438 167.140625 23 167.339844 23 167.839844 Z M 23 167.839844 "/>
<path style=" stroke:none;fill-rule:nonzero;fill:rgb(0%,0%,0%);fill-opacity:1;" d="M 111.101562 182.917969 C 110.398438 184.015625 110.101562 185.210938 110.398438 185.511719 C 110.699219 185.8125 111 185.511719 111 184.914062 C 111 184.214844 111.699219 183.714844 112.5 183.714844 C 114.101562 183.714844 114.5 182.21875 113.199219 181.320312 C 112.800781 181.121094 111.800781 181.71875 111.101562 182.917969 Z M 111.101562 182.917969 "/>
<path style=" stroke:none;fill-rule:nonzero;fill:rgb(0%,0%,0%);fill-opacity:1;" d="M 110 187.308594 C 110 189.007812 114.101562 191.003906 115.300781 189.804688 C 116.101562 189.007812 115.800781 188.707031 114.398438 188.707031 C 113.300781 188.707031 111.898438 188.207031 111.199219 187.507812 C 110.5 186.808594 110 186.710938 110 187.308594 Z M 110 187.308594 "/>
<path style=" stroke:none;fill-rule:nonzero;fill:rgb(0%,0%,0%);fill-opacity:1;" d="M 19.699219 209.375 C 19.300781 209.675781 19 210.472656 19 211.074219 C 19 211.671875 19.5 211.570312 20.199219 210.875 C 20.800781 210.273438 21.101562 209.476562 20.898438 209.175781 C 20.601562 208.875 20 208.976562 19.699219 209.375 Z M 19.699219 209.375 "/>
<path style=" stroke:none;fill-rule:nonzero;fill:rgb(0%,0%,0%);fill-opacity:1;" d="M 9 213.667969 C 9 214.167969 9.5 214.667969 10 214.667969 C 10.601562 214.667969 11 214.167969 11 213.667969 C 11 213.070312 10.601562 212.671875 10 212.671875 C 9.5 212.671875 9 213.070312 9 213.667969 Z M 9 213.667969 "/>
<path style=" stroke:none;fill-rule:nonzero;fill:rgb(0%,0%,0%);fill-opacity:1;" d="M 94.5 214.667969 C 94.898438 215.265625 95.601562 215.464844 96.101562 215.167969 C 97.5 214.269531 97.199219 213.667969 95.398438 213.667969 C 94.601562 213.667969 94.199219 214.167969 94.5 214.667969 Z M 94.5 214.667969 "/>
<path style=" stroke:none;fill-rule:nonzero;fill:rgb(0%,0%,0%);fill-opacity:1;" d="M 328.699219 222.753906 C 329.398438 223.453125 330.199219 223.753906 330.5 223.453125 C 330.800781 223.152344 330.300781 222.554688 329.300781 222.253906 C 327.898438 221.65625 327.800781 221.757812 328.699219 222.753906 Z M 328.699219 222.753906 "/>
<path style=" stroke:none;fill-rule:nonzero;fill:rgb(0%,0%,0%);fill-opacity:1;" d="M 59 225.648438 C 57.699219 226.449219 57.699219 226.648438 59.199219 226.648438 C 60.101562 226.648438 61.199219 226.148438 61.5 225.648438 C 62.300781 224.351562 61 224.351562 59 225.648438 Z M 59 225.648438 "/>
<path style=" stroke:none;fill-rule:nonzero;fill:rgb(0%,0%,0%);fill-opacity:1;" d="M 330 231.441406 C 330 232.640625 331.898438 234.039062 332.601562 233.339844 C 332.800781 233.136719 332.398438 232.339844 331.5 231.640625 C 330.601562 230.84375 330 230.84375 330 231.441406 Z M 330 231.441406 "/>
<path style=" stroke:none;fill-rule:nonzero;fill:rgb(0%,0%,0%);fill-opacity:1;" d="M 334 233.339844 C 334 233.738281 334.5 234.835938 335 235.632812 C 335.800781 236.933594 336 236.933594 336 235.433594 C 336 234.535156 335.601562 233.4375 335 233.136719 C 334.5 232.839844 334 232.839844 334 233.339844 Z M 334 233.339844 "/>
<path style=" stroke:none;fill-rule:nonzero;fill:rgb(0%,0%,0%);fill-opacity:1;" d="M 103.699219 236.332031 C 102.300781 237.632812 103.101562 239.628906 105 239.628906 C 106.300781 239.628906 107 238.929688 107 237.632812 C 107 235.734375 105 234.9375 103.699219 236.332031 Z M 103.699219 236.332031 "/>
<path style=" stroke:none;fill-rule:nonzero;fill:rgb(0%,0%,0%);fill-opacity:1;" d="M 35 238.53125 C 35 239.128906 35.5 239.828125 36 240.128906 C 36.601562 240.425781 37 240.027344 37 239.230469 C 37 238.332031 36.601562 237.632812 36 237.632812 C 35.5 237.632812 35 238.03125 35 238.53125 Z M 35 238.53125 "/>
<path style=" stroke:none;fill-rule:nonzero;fill:rgb(0%,0%,0%);fill-opacity:1;" d="M 330 238.03125 C 330 238.230469 330.699219 238.730469 331.601562 239.03125 C 332.398438 239.328125 332.800781 239.230469 332.5 238.628906 C 331.898438 237.632812 330 237.230469 330 238.03125 Z M 330 238.03125 "/>
<path style=" stroke:none;fill-rule:nonzero;fill:rgb(0%,0%,0%);fill-opacity:1;" d="M 34 241.625 C 34 242.125 34.5 242.625 35.101562 242.625 C 35.601562 242.625 35.800781 242.125 35.5 241.625 C 35.199219 241.027344 34.699219 240.625 34.398438 240.625 C 34.199219 240.625 34 241.027344 34 241.625 Z M 34 241.625 "/>
<path style=" stroke:none;fill-rule:nonzero;fill:rgb(0%,0%,0%);fill-opacity:1;" d="M 29.5 242.625 C 29.800781 243.125 30.300781 243.621094 30.601562 243.621094 C 30.800781 243.621094 31 243.125 31 242.625 C 31 242.023438 30.5 241.625 29.898438 241.625 C 29.398438 241.625 29.199219 242.023438 29.5 242.625 Z M 29.5 242.625 "/>
<path style=" stroke:none;fill-rule:nonzero;fill:rgb(0%,0%,0%);fill-opacity:1;" d="M 326 242.625 C 326 243.125 326.5 243.621094 327 243.621094 C 327.601562 243.621094 328 243.125 328 242.625 C 328 242.023438 327.601562 241.625 327 241.625 C 326.5 241.625 326 242.023438 326 242.625 Z M 326 242.625 "/>
<path style=" stroke:none;fill-rule:nonzero;fill:rgb(0%,0%,0%);fill-opacity:1;" d="M 100 244.621094 C 100 245.121094 100.5 245.621094 101 245.621094 C 101.601562 245.621094 102 245.121094 102 244.621094 C 102 244.023438 101.601562 243.621094 101 243.621094 C 100.5 243.621094 100 244.023438 100 244.621094 Z M 100 244.621094 "/>
<path style=" stroke:none;fill-rule:nonzero;fill:rgb(0%,0%,0%);fill-opacity:1;" d="M 329.300781 244.519531 C 327.699219 245.71875 325.800781 248.613281 326.601562 248.613281 C 327.101562 248.613281 328.800781 247.515625 330.398438 246.316406 C 332.398438 244.621094 332.800781 243.921875 331.699219 243.921875 C 330.800781 243.921875 329.699219 244.222656 329.300781 244.519531 Z M 329.300781 244.519531 "/>
<path style=" stroke:none;fill-rule:nonzero;fill:rgb(0%,0%,0%);fill-opacity:1;" d="M 78 256.601562 C 78 257.101562 78.5 257.601562 79 257.601562 C 79.601562 257.601562 80 257.101562 80 256.601562 C 80 256.003906 79.601562 255.605469 79 255.605469 C 78.5 255.605469 78 256.003906 78 256.601562 Z M 78 256.601562 "/>
<path style=" stroke:none;fill-rule:nonzero;fill:rgb(0%,0%,0%);fill-opacity:1;" d="M 314.5 256.601562 C 314.800781 257.101562 315.300781 257.601562 315.601562 257.601562 C 315.800781 257.601562 316 257.101562 316 256.601562 C 316 256.003906 315.5 255.605469 314.898438 255.605469 C 314.398438 255.605469 314.199219 256.003906 314.5 256.601562 Z M 314.5 256.601562 "/>
<path style=" stroke:none;fill-rule:nonzero;fill:rgb(0%,0%,0%);fill-opacity:1;" d="M 78 261.09375 C 78 261.894531 77.300781 262.59375 76.5 262.59375 C 74.898438 262.59375 74.5 264.191406 75.898438 264.988281 C 76.300781 265.289062 77.699219 264.488281 78.898438 263.191406 C 80.800781 261.195312 80.898438 260.796875 79.601562 260.296875 C 78.601562 259.898438 78 260.195312 78 261.09375 Z M 78 261.09375 "/>
<path style=" stroke:none;fill-rule:nonzero;fill:rgb(0%,0%,0%);fill-opacity:1;" d="M 70.800781 263.589844 C 69.699219 267.386719 69.800781 269.183594 71.101562 267.882812 C 71.699219 267.285156 72 265.589844 71.800781 263.992188 L 71.5 261.09375 Z M 70.800781 263.589844 "/>
<path style=" stroke:none;fill-rule:nonzero;fill:rgb(0%,0%,0%);fill-opacity:1;" d="M 331.601562 266.488281 C 331.199219 267.1875 331.101562 267.984375 331.398438 268.285156 C 332.300781 269.183594 333.300781 267.882812 332.800781 266.488281 C 332.398438 265.386719 332.199219 265.386719 331.601562 266.488281 Z M 331.601562 266.488281 "/>
<path style=" stroke:none;fill-rule:nonzero;fill:rgb(0%,0%,0%);fill-opacity:1;" d="M 70 270.082031 C 70 270.980469 72.5 275.074219 73.5 275.773438 C 75 276.96875 78 276.671875 78 275.472656 C 78 274.875 77.101562 274.574219 76 274.875 C 74.699219 275.171875 74 274.875 74 273.976562 C 74 273.175781 73.601562 272.578125 73 272.578125 C 72.5 272.578125 72 271.878906 72 271.078125 C 72 270.28125 71.601562 269.582031 71 269.582031 C 70.5 269.582031 70 269.78125 70 270.082031 Z M 70 270.082031 "/>
<path style=" stroke:none;fill-rule:nonzero;fill:rgb(0%,0%,0%);fill-opacity:1;" d="M 4 287.554688 C 4 288.152344 4.699219 288.550781 5.5 288.550781 C 7.398438 288.550781 7.398438 287.953125 5.5 287.15625 C 4.699219 286.855469 4 287.054688 4 287.554688 Z M 4 287.554688 "/>
<path style=" stroke:none;fill-rule:nonzero;fill:rgb(0%,0%,0%);fill-opacity:1;" d="M 316 288.953125 C 316 289.152344 316.699219 289.851562 317.5 290.550781 C 318.398438 291.25 319 291.347656 319 290.75 C 319 290.25 318.300781 289.550781 317.5 289.152344 C 316.699219 288.851562 316 288.753906 316 288.953125 Z M 316 288.953125 "/>
<path style=" stroke:none;fill-rule:nonzero;fill:rgb(0%,0%,0%);fill-opacity:1;" d="M 313.5 292.546875 C 313.800781 293.046875 314.601562 293.542969 315.101562 293.542969 C 315.699219 293.542969 315.800781 293.046875 315.5 292.546875 C 315.199219 291.949219 314.398438 291.546875 313.898438 291.546875 C 313.300781 291.546875 313.199219 291.949219 313.5 292.546875 Z M 313.5 292.546875 "/>
<path style=" stroke:none;fill-rule:nonzero;fill:rgb(0%,0%,0%);fill-opacity:1;" d="M 326.398438 301.332031 C 321.5 305.027344 310.800781 313.214844 302.5 319.40625 C 284.199219 333.183594 285.398438 332.085938 286.898438 333.78125 C 287.800781 334.980469 288.699219 334.582031 292.300781 331.285156 C 294.601562 329.191406 297.5 327.191406 298.800781 326.894531 C 300 326.492188 301 325.894531 301 325.296875 C 301 324.796875 301.5 324.695312 302 324.996094 C 302.601562 325.296875 303 324.996094 303 324.296875 C 303 323.5 310.398438 317.308594 319.5 310.519531 C 330 302.628906 336 297.4375 336 296.339844 C 336 295.34375 335.800781 294.542969 335.601562 294.542969 C 335.398438 294.542969 331.300781 297.636719 326.398438 301.332031 Z M 326.398438 301.332031 "/>
<path style=" stroke:none;fill-rule:nonzero;fill:rgb(0%,0%,0%);fill-opacity:1;" d="M 37.699219 303.230469 C 37.300781 303.53125 37 304.328125 37 304.925781 C 37 305.527344 37.5 305.425781 38.199219 304.726562 C 38.800781 304.128906 39.101562 303.328125 38.898438 303.03125 C 38.601562 302.730469 38 302.832031 37.699219 303.230469 Z M 37.699219 303.230469 "/>
<path style=" stroke:none;fill-rule:nonzero;fill:rgb(0%,0%,0%);fill-opacity:1;" d="M 321.898438 312.816406 C 304.5 326.09375 302.398438 327.59375 301.601562 326.792969 C 301.300781 326.492188 301 326.792969 301 327.59375 C 300.898438 328.390625 298.5 330.789062 295.5 332.984375 L 290.101562 336.976562 L 290.199219 345.964844 C 290.199219 354.25 290.300781 354.550781 291.199219 350.457031 C 291.699219 347.960938 292.199219 344.765625 292.199219 343.269531 C 292.300781 340.871094 295.300781 338.175781 314.101562 323.898438 C 331.699219 310.519531 336 306.824219 336 304.925781 C 336 303.628906 335.800781 302.53125 335.601562 302.53125 C 335.398438 302.53125 329.199219 307.125 321.898438 312.816406 Z M 321.898438 312.816406 "/>
<path style=" stroke:none;fill-rule:nonzero;fill:rgb(0%,0%,0%);fill-opacity:1;" d="M 27 305.925781 C 27 308.121094 28.699219 308.722656 29.398438 306.925781 C 30.300781 304.726562 30.199219 304.527344 28.5 304.527344 C 27.699219 304.527344 27 305.125 27 305.925781 Z M 27 305.925781 "/>
<path style=" stroke:none;fill-rule:nonzero;fill:rgb(0%,0%,0%);fill-opacity:1;" d="M 291 307.523438 C 291 308.023438 291.5 308.523438 292.101562 308.523438 C 292.601562 308.523438 292.800781 308.023438 292.5 307.523438 C 292.199219 306.925781 291.699219 306.523438 291.398438 306.523438 C 291.199219 306.523438 291 306.925781 291 307.523438 Z M 291 307.523438 "/>
<path style=" stroke:none;fill-rule:nonzero;fill:rgb(0%,0%,0%);fill-opacity:1;" d="M 89 308.621094 C 89 309.121094 89.5 309.320312 90 309.019531 C 90.601562 308.722656 91 308.222656 91 307.921875 C 91 307.722656 90.601562 307.523438 90 307.523438 C 89.5 307.523438 89 308.023438 89 308.621094 Z M 89 308.621094 "/>
<path style=" stroke:none;fill-rule:nonzero;fill:rgb(0%,0%,0%);fill-opacity:1;" d="M 113.800781 317.207031 C 114.5 317.507812 115.398438 317.40625 115.699219 317.109375 C 116.101562 316.808594 115.5 316.507812 114.398438 316.609375 C 113.300781 316.609375 113 316.910156 113.800781 317.207031 Z M 113.800781 317.207031 "/>
<path style=" stroke:none;fill-rule:nonzero;fill:rgb(0%,0%,0%);fill-opacity:1;" d="M 105.800781 319.207031 C 106.398438 319.40625 107.601562 319.40625 108.300781 319.207031 C 108.898438 318.90625 108.398438 318.707031 107 318.707031 C 105.601562 318.707031 105.101562 318.90625 105.800781 319.207031 Z M 105.800781 319.207031 "/>
<path style=" stroke:none;fill-rule:nonzero;fill:rgb(0%,0%,0%);fill-opacity:1;" d="M 86.5 326.492188 C 86.199219 326.992188 86.398438 327.492188 86.898438 327.492188 C 87.5 327.492188 88 326.992188 88 326.492188 C 88 325.894531 87.800781 325.496094 87.601562 325.496094 C 87.300781 325.496094 86.800781 325.894531 86.5 326.492188 Z M 86.5 326.492188 "/>
<path style=" stroke:none;fill-rule:nonzero;fill:rgb(0%,0%,0%);fill-opacity:1;" d="M 104.5 333.484375 C 104.800781 333.980469 105.300781 334.480469 105.601562 334.480469 C 105.800781 334.480469 106 333.980469 106 333.484375 C 106 332.882812 105.5 332.484375 104.898438 332.484375 C 104.398438 332.484375 104.199219 332.882812 104.5 333.484375 Z M 104.5 333.484375 "/>
<path style=" stroke:none;fill-rule:nonzero;fill:rgb(0%,0%,0%);fill-opacity:1;" d="M 36.699219 348.558594 C 36.300781 350.15625 36.398438 350.355469 37.601562 349.359375 C 38.300781 348.757812 38.699219 347.859375 38.398438 347.363281 C 37.601562 346.0625 37.300781 346.261719 36.699219 348.558594 Z M 36.699219 348.558594 "/>
<path style=" stroke:none;fill-rule:nonzero;fill:rgb(0%,0%,0%);fill-opacity:1;" d="M 114 348.460938 C 114 348.957031 114.5 349.457031 115.101562 349.457031 C 115.601562 349.457031 115.800781 348.957031 115.5 348.460938 C 115.199219 347.859375 114.699219 347.460938 114.398438 347.460938 C 114.199219 347.460938 114 347.859375 114 348.460938 Z M 114 348.460938 "/>
<path style=" stroke:none;fill-rule:nonzero;fill:rgb(0%,0%,0%);fill-opacity:1;" d="M 23 351.355469 C 23 351.855469 24.101562 352.152344 25.398438 352.054688 C 26.699219 352.054688 27.601562 351.65625 27.300781 351.15625 C 26.699219 350.15625 23 350.257812 23 351.355469 Z M 23 351.355469 "/>
<path style=" stroke:none;fill-rule:nonzero;fill:rgb(0%,0%,0%);fill-opacity:1;" d="M 296 351.457031 C 296 351.953125 296.5 352.453125 297 352.453125 C 297.601562 352.453125 298 351.953125 298 351.457031 C 298 350.855469 297.601562 350.457031 297 350.457031 C 296.5 350.457031 296 350.855469 296 351.457031 Z M 296 351.457031 "/>
<path style=" stroke:none;fill-rule:nonzero;fill:rgb(0%,0%,0%);fill-opacity:1;" d="M 294.199219 357.945312 C 294.199219 359.542969 294.398438 360.140625 294.699219 359.144531 C 294.898438 358.246094 294.898438 356.847656 294.699219 356.148438 C 294.398438 355.546875 294.199219 356.246094 294.199219 357.945312 Z M 294.199219 357.945312 "/>
<path style=" stroke:none;fill-rule:nonzero;fill:rgb(0%,0%,0%);fill-opacity:1;" d="M 287.300781 364.136719 C 286.101562 368.429688 285.300781 372.023438 285.5 372.222656 C 286 372.820312 290.199219 358.445312 289.800781 357.347656 C 289.601562 356.847656 288.5 359.941406 287.300781 364.136719 Z M 287.300781 364.136719 "/>
<path style=" stroke:none;fill-rule:nonzero;fill:rgb(0%,0%,0%);fill-opacity:1;" d="M 248 358.34375 C 248 358.84375 248.800781 360.242188 249.800781 361.539062 C 251.101562 363.039062 251.898438 363.4375 252.398438 362.636719 C 252.800781 361.9375 252.5 361.441406 251.601562 361.441406 C 250.699219 361.441406 250 360.542969 250 359.441406 C 250 358.34375 249.601562 357.445312 249 357.445312 C 248.5 357.445312 248 357.84375 248 358.34375 Z M 248 358.34375 "/>
<path style=" stroke:none;fill-rule:nonzero;fill:rgb(0%,0%,0%);fill-opacity:1;" d="M 132.800781 360.140625 C 133.5 360.441406 134.398438 360.339844 134.699219 360.042969 C 135.101562 359.742188 134.5 359.441406 133.398438 359.542969 C 132.300781 359.542969 132 359.84375 132.800781 360.140625 Z M 132.800781 360.140625 "/>
<path style=" stroke:none;fill-rule:nonzero;fill:rgb(0%,0%,0%);fill-opacity:1;" d="M 88.5 361.441406 C 88.800781 361.9375 89.300781 362.4375 89.601562 362.4375 C 89.800781 362.4375 90 361.9375 90 361.441406 C 90 360.839844 89.5 360.441406 88.898438 360.441406 C 88.398438 360.441406 88.199219 360.839844 88.5 361.441406 Z M 88.5 361.441406 "/>
<path style=" stroke:none;fill-rule:nonzero;fill:rgb(0%,0%,0%);fill-opacity:1;" d="M 283.601562 374.917969 C 282.699219 377.515625 282.898438 378.113281 284.101562 376.117188 C 284.699219 375.117188 285 374.019531 284.699219 373.820312 C 284.5 373.519531 284 374.019531 283.601562 374.917969 Z M 283.601562 374.917969 "/>
<path style=" stroke:none;fill-rule:nonzero;fill:rgb(0%,0%,0%);fill-opacity:1;" d="M 160 384.402344 C 160 384.902344 160.5 385.402344 161 385.402344 C 161.601562 385.402344 162 384.902344 162 384.402344 C 162 383.804688 161.601562 383.40625 161 383.40625 C 160.5 383.40625 160 383.804688 160 384.402344 Z M 160 384.402344 "/>
<path style=" stroke:none;fill-rule:nonzero;fill:rgb(0%,0%,0%);fill-opacity:1;" d="M 329 386.402344 C 329 386.898438 329.5 387.398438 330 387.398438 C 330.601562 387.398438 331 386.898438 331 386.402344 C 331 385.800781 330.601562 385.402344 330 385.402344 C 329.5 385.402344 329 385.800781 329 386.402344 Z M 329 386.402344 "/>
<path style=" stroke:none;fill-rule:nonzero;fill:rgb(0%,0%,0%);fill-opacity:1;" d="M 144 398.980469 C 140.398438 407.566406 140.601562 410.0625 144.300781 402.675781 C 146.699219 397.984375 148.699219 391.394531 147.699219 391.394531 C 147.398438 391.394531 145.800781 394.789062 144 398.980469 Z M 144 398.980469 "/>
<path style=" stroke:none;fill-rule:nonzero;fill:rgb(0%,0%,0%);fill-opacity:1;" d="M 213 398.382812 C 213 398.882812 213.5 399.378906 214.101562 399.378906 C 214.601562 399.378906 214.800781 398.882812 214.5 398.382812 C 214.199219 397.785156 213.699219 397.382812 213.398438 397.382812 C 213.199219 397.382812 213 397.785156 213 398.382812 Z M 213 398.382812 "/>
<path style=" stroke:none;fill-rule:nonzero;fill:rgb(0%,0%,0%);fill-opacity:1;" d="M 236 406.371094 C 236 406.871094 236.5 407.367188 237 407.367188 C 237.601562 407.367188 238 406.871094 238 406.371094 C 238 405.769531 237.601562 405.371094 237 405.371094 C 236.5 405.371094 236 405.769531 236 406.371094 Z M 236 406.371094 "/>
<path style=" stroke:none;fill-rule:nonzero;fill:rgb(0%,0%,0%);fill-opacity:1;" d="M 335.101562 414.957031 C 335.101562 416.054688 335.398438 416.355469 335.699219 415.554688 C 336 414.855469 335.898438 413.957031 335.601562 413.660156 C 335.300781 413.257812 335 413.859375 335.101562 414.957031 Z M 335.101562 414.957031 "/>
<path style=" stroke:none;fill-rule:nonzero;fill:rgb(0%,0%,0%);fill-opacity:1;" d="M 235.101562 423.34375 C 235.101562 424.742188 235.5 426.738281 236 427.835938 C 236.699219 429.535156 236.898438 429.433594 236.898438 426.839844 C 236.898438 425.140625 236.5 423.144531 236 422.34375 C 235.199219 421.148438 235 421.347656 235.101562 423.34375 Z M 235.101562 423.34375 "/>
<path style=" stroke:none;fill-rule:nonzero;fill:rgb(0%,0%,0%);fill-opacity:1;" d="M 8 425.339844 C 8 425.839844 8.5 426.339844 9.101562 426.339844 C 9.601562 426.339844 9.800781 425.839844 9.5 425.339844 C 9.199219 424.742188 8.699219 424.34375 8.398438 424.34375 C 8.199219 424.34375 8 424.742188 8 425.339844 Z M 8 425.339844 "/>
<path style=" stroke:none;fill-rule:nonzero;fill:rgb(0%,0%,0%);fill-opacity:1;" d="M 19 430.332031 C 19 430.832031 19.5 431.332031 20.101562 431.332031 C 20.601562 431.332031 20.800781 430.832031 20.5 430.332031 C 20.199219 429.734375 19.699219 429.335938 19.398438 429.335938 C 19.199219 429.335938 19 429.734375 19 430.332031 Z M 19 430.332031 "/>
<path style=" stroke:none;fill-rule:nonzero;fill:rgb(0%,0%,0%);fill-opacity:1;" d="M 270 430.332031 C 270 430.832031 270.5 431.332031 271 431.332031 C 271.601562 431.332031 272 430.832031 272 430.332031 C 272 429.734375 271.601562 429.335938 271 429.335938 C 270.5 429.335938 270 429.734375 270 430.332031 Z M 270 430.332031 "/>
<path style=" stroke:none;fill-rule:nonzero;fill:rgb(0%,0%,0%);fill-opacity:1;" d="M 278.5 431.332031 C 278.199219 431.832031 278.601562 432.328125 279.5 432.328125 C 280.398438 432.328125 280.800781 431.832031 280.5 431.332031 C 280.199219 430.730469 279.699219 430.332031 279.5 430.332031 C 279.300781 430.332031 278.800781 430.730469 278.5 431.332031 Z M 278.5 431.332031 "/>
<path style=" stroke:none;fill-rule:nonzero;fill:rgb(0%,0%,0%);fill-opacity:1;" d="M 237.300781 437.820312 C 237.300781 440.019531 237.5 440.816406 237.699219 439.519531 C 237.898438 438.320312 237.898438 436.523438 237.699219 435.523438 C 237.398438 434.625 237.199219 435.625 237.300781 437.820312 Z M 237.300781 437.820312 "/>
<path style=" stroke:none;fill-rule:nonzero;fill:rgb(0%,0%,0%);fill-opacity:1;" d="M 283 435.324219 C 283 435.824219 283.5 436.324219 284.101562 436.324219 C 284.601562 436.324219 284.800781 435.824219 284.5 435.324219 C 284.199219 434.726562 283.699219 434.328125 283.398438 434.328125 C 283.199219 434.328125 283 434.726562 283 435.324219 Z M 283 435.324219 "/>
<path style=" stroke:none;fill-rule:nonzero;fill:rgb(0%,0%,0%);fill-opacity:1;" d="M 11 436.324219 C 11 436.824219 11.5 437.320312 12.101562 437.320312 C 12.601562 437.320312 12.800781 436.824219 12.5 436.324219 C 12.199219 435.722656 11.699219 435.324219 11.398438 435.324219 C 11.199219 435.324219 11 435.722656 11 436.324219 Z M 11 436.324219 "/>
<path style=" stroke:none;fill-rule:nonzero;fill:rgb(0%,0%,0%);fill-opacity:1;" d="M 326 449.800781 C 326 450.601562 326.199219 451.300781 326.398438 451.300781 C 326.601562 451.300781 327 450.601562 327.398438 449.800781 C 327.699219 449.003906 327.5 448.304688 327 448.304688 C 326.398438 448.304688 326 449.003906 326 449.800781 Z M 326 449.800781 "/>
<path style=" stroke:none;fill-rule:nonzero;fill:rgb(0%,0%,0%);fill-opacity:1;" d="M 316.5 454.296875 C 316.800781 454.792969 317.300781 455.292969 317.601562 455.292969 C 317.800781 455.292969 318 454.792969 318 454.296875 C 318 453.695312 317.5 453.296875 316.898438 453.296875 C 316.398438 453.296875 316.199219 453.695312 316.5 454.296875 Z M 316.5 454.296875 "/>
<path style=" stroke:none;fill-rule:nonzero;fill:rgb(0%,0%,0%);fill-opacity:1;" d="M 328 471.269531 C 328 471.769531 328.699219 472.269531 329.601562 472.269531 C 330.398438 472.269531 330.800781 471.769531 330.5 471.269531 C 330.199219 470.671875 329.5 470.269531 328.898438 470.269531 C 328.398438 470.269531 328 470.671875 328 471.269531 Z M 328 471.269531 "/>
<path style=" stroke:none;fill-rule:nonzero;fill:rgb(0%,0%,0%);fill-opacity:1;" d="M 335.199219 472.765625 C 335.199219 474.363281 335.398438 474.964844 335.699219 473.964844 C 335.898438 473.066406 335.898438 471.667969 335.699219 470.96875 C 335.398438 470.371094 335.199219 471.070312 335.199219 472.765625 Z M 335.199219 472.765625 "/>
<path style=" stroke:none;fill-rule:nonzero;fill:rgb(0%,0%,0%);fill-opacity:1;" d="M 44.5 493.234375 C 44.199219 493.734375 44.398438 494.234375 44.898438 494.234375 C 45.5 494.234375 46 493.734375 46 493.234375 C 46 492.636719 45.800781 492.238281 45.601562 492.238281 C 45.300781 492.238281 44.800781 492.636719 44.5 493.234375 Z M 44.5 493.234375 "/>
<path style=" stroke:none;fill-rule:nonzero;fill:rgb(0%,0%,0%);fill-opacity:1;" d="M 9 494.734375 C 9 496.128906 8.699219 496.230469 7.5 495.230469 C 6.199219 494.132812 6 494.433594 6.101562 497.328125 C 6.101562 499.226562 6.398438 500.125 6.699219 499.425781 C 7.300781 497.929688 9 498.828125 9 500.824219 C 9 501.621094 8.300781 502.222656 7.5 502.222656 C 6.699219 502.222656 6 502.621094 6 503.21875 C 6 503.71875 6.699219 504.21875 7.5 504.21875 C 8.398438 504.21875 9 505.214844 9.101562 506.914062 C 9.199219 509.511719 9.199219 509.511719 10.199219 506.214844 C 11.601562 501.324219 12.800781 500.324219 14.601562 502.71875 C 15.898438 504.519531 15.800781 504.816406 13.800781 506.414062 C 12.5 507.3125 11.898438 508.410156 12.300781 508.8125 C 12.699219 509.210938 13.898438 508.710938 15 507.710938 C 17 505.914062 17.101562 505.914062 18.398438 507.8125 C 19.199219 508.8125 20.199219 509.308594 20.699219 508.910156 C 21.101562 508.410156 20.699219 507.414062 19.601562 506.714844 C 17.699219 505.316406 17.800781 504.617188 20.398438 498.128906 C 20.898438 496.929688 20.5 496.628906 18.800781 496.730469 C 17.199219 496.828125 16.300781 496.230469 15.800781 494.832031 C 15.199219 492.734375 15.199219 492.734375 14.5 495.03125 C 13.699219 497.328125 10.5 497.828125 10.5 495.53125 C 10.5 494.933594 10.199219 494.035156 9.800781 493.632812 C 9.300781 493.234375 9 493.734375 9 494.734375 Z M 11.601562 500.921875 C 10.601562 501.921875 9.699219 500.425781 10.601562 499.125 C 11.199219 498.027344 11.398438 498.027344 11.800781 499.125 C 12 499.824219 11.898438 500.625 11.601562 500.921875 Z M 18 500.222656 C 18 501.324219 17.601562 502.222656 17 502.222656 C 16.5 502.222656 16 502.023438 16 501.820312 C 16 501.621094 15.699219 500.722656 15.398438 499.824219 C 15 498.726562 15.300781 498.226562 16.398438 498.226562 C 17.300781 498.226562 18 499.027344 18 500.222656 Z M 18 500.222656 "/>
<path style=" stroke:none;fill-rule:nonzero;fill:rgb(0%,0%,0%);fill-opacity:1;" d="M 31.601562 494.035156 C 31.199219 494.734375 29.800781 495.03125 28.199219 494.632812 C 25.601562 494.132812 25.601562 494.132812 27.398438 495.632812 C 28.5 496.53125 29.898438 497.230469 30.398438 497.230469 C 31 497.230469 30.699219 497.726562 29.699219 498.328125 C 28.800781 498.828125 27.5 499.027344 27 498.726562 C 25 497.429688 26.101562 499.425781 28.699219 501.621094 C 30.5 503.121094 31 504.117188 30.199219 504.617188 C 29.398438 505.015625 29 504.617188 29 503.621094 C 29 501.023438 27.300781 503.121094 26.398438 506.714844 C 25.699219 509.511719 25.800781 509.609375 27.398438 508.3125 C 28.800781 507.113281 29.601562 507.113281 31.101562 508.011719 C 32.699219 509.011719 33 508.910156 33 507.710938 C 33 506.914062 33.398438 506.214844 34 506.214844 C 34.5 506.214844 34.699219 506.914062 34.398438 507.710938 C 34 508.511719 34.300781 509.210938 34.898438 509.210938 C 35.601562 509.210938 36.300781 508.511719 36.699219 507.710938 C 37.199219 506.316406 37.5 506.316406 39.300781 507.914062 C 41.199219 509.609375 41.199219 509.609375 40.699219 507.710938 C 39.699219 504.316406 39.601562 496.730469 40.5 495.332031 C 41.101562 494.234375 40.5 494.035156 37.199219 494.433594 C 34.601562 494.832031 33 494.632812 32.699219 493.933594 C 32.5 493.136719 32.101562 493.234375 31.601562 494.035156 Z M 36.5 497.128906 C 36.199219 497.726562 35.101562 498.226562 34.199219 498.226562 C 32.898438 498.226562 32.898438 498.027344 34.601562 496.828125 C 36.699219 495.332031 37.601562 495.433594 36.5 497.128906 Z M 34 500.222656 C 34 500.722656 33.300781 501.222656 32.5 501.222656 C 31.699219 501.222656 31 500.722656 31 500.222656 C 31 499.625 31.699219 499.226562 32.5 499.226562 C 33.300781 499.226562 34 499.625 34 500.222656 Z M 39 500.921875 C 39 501.421875 38.5 502.421875 38 503.21875 C 37.199219 504.417969 37 504.316406 37 502.421875 C 37 501.222656 37.5 500.222656 38 500.222656 C 38.601562 500.222656 39 500.523438 39 500.921875 Z M 36 503.820312 C 36 504.617188 35.601562 505.015625 35 504.71875 C 34.5 504.417969 34 503.71875 34 503.121094 C 34 502.621094 34.5 502.222656 35 502.222656 C 35.601562 502.222656 36 502.921875 36 503.820312 Z M 36 503.820312 "/>
<path style=" stroke:none;fill-rule:nonzero;fill:rgb(0%,0%,0%);fill-opacity:1;" d="M 53.199219 495.332031 C 52.199219 496.929688 52.199219 497.726562 53.101562 498.828125 C 53.699219 499.625 53.800781 500.222656 53.300781 500.222656 C 52.800781 500.222656 52.300781 501.921875 52.199219 503.917969 C 52 507.613281 53.398438 507.511719 54.300781 503.71875 C 54.601562 502.519531 54.898438 503.417969 55 505.714844 L 55.300781 509.710938 L 56 506.214844 C 56.398438 504.316406 56.800781 503.519531 56.898438 504.417969 C 57.101562 507.710938 58.800781 506.214844 58.601562 502.921875 C 58.398438 500.425781 58 499.824219 56.5 500.023438 C 54.800781 500.324219 54.800781 500.324219 56.398438 498.726562 C 58.5 496.628906 57.699219 495.433594 55.5 497.230469 C 54.101562 498.425781 54 498.226562 54.5 495.929688 C 55.398438 492.734375 54.898438 492.535156 53.199219 495.332031 Z M 53.199219 495.332031 "/>
<path style=" stroke:none;fill-rule:nonzero;fill:rgb(0%,0%,0%);fill-opacity:1;" d="M 73.800781 494.035156 C 72.800781 494.234375 72 494.832031 72 495.332031 C 72 495.832031 72.800781 496.230469 73.800781 496.230469 C 75.300781 496.332031 75.300781 496.429688 73.601562 497.726562 C 71.601562 499.226562 71.601562 499.226562 73.601562 499.226562 C 75.398438 499.324219 75.398438 499.324219 73.699219 500.625 C 72.398438 501.621094 72.199219 502.121094 73.199219 502.519531 C 74.199219 502.921875 74.300781 503.21875 73.300781 504.316406 C 71.5 506.117188 71.699219 507.710938 73.5 506.214844 C 74.699219 505.214844 75 505.214844 75 506.613281 C 75 508.710938 76 508.613281 77.601562 506.515625 C 78.5 505.214844 78.5 504.316406 77.800781 503.519531 C 77.101562 502.621094 77.101562 502.222656 78 502.222656 C 78.699219 502.222656 79.898438 503.019531 80.601562 503.917969 C 81.800781 505.515625 81.898438 505.316406 82 501.921875 C 82 499.925781 81.601562 498.226562 81 498.226562 C 80.5 498.226562 80 498.625 80 499.226562 C 80 499.726562 79.300781 500.222656 78.398438 500.222656 C 77.101562 500.222656 77 499.925781 77.898438 498.828125 C 78.800781 497.726562 78.800781 497.328125 77.800781 496.929688 C 77.101562 496.628906 78.398438 496.429688 80.800781 496.429688 C 83.101562 496.53125 85.601562 496.03125 86.199219 495.433594 C 87.5 494.132812 87.699219 494.132812 80 493.835938 C 77.5 493.734375 74.699219 493.835938 73.800781 494.035156 Z M 73.800781 494.035156 "/>
<path style=" stroke:none;fill-rule:nonzero;fill:rgb(0%,0%,0%);fill-opacity:1;" d="M 93 495.230469 C 93 496.332031 92.398438 497.230469 91.800781 497.230469 C 90.898438 497.230469 90.898438 497.527344 91.898438 498.128906 C 93.101562 498.925781 93.199219 499.527344 92.199219 501.722656 C 90.699219 504.917969 90.699219 505.515625 92 504.71875 C 92.601562 504.417969 93 505.015625 93 506.117188 C 93 507.214844 93.5 508.410156 94 508.710938 C 94.601562 509.109375 95 508.011719 95 506.316406 C 95 504.617188 95.5 503.21875 96 503.21875 C 96.601562 503.21875 97 504.316406 97 505.617188 C 97 507.710938 97.5 508.011719 101.601562 508.410156 C 104.101562 508.613281 106.300781 508.511719 106.601562 508.3125 C 106.800781 508.113281 107 506.015625 107 503.71875 C 107 500.425781 106.5 499.125 104.800781 497.929688 C 102.898438 496.628906 102.800781 496.332031 104.300781 496.332031 C 105.199219 496.230469 106 495.730469 106 495.230469 C 106 494.632812 104 494.234375 101.5 494.234375 C 99 494.234375 97 494.632812 97 495.230469 C 97 495.730469 97.699219 496.230469 98.5 496.230469 C 99.300781 496.230469 100 496.628906 100 497.230469 C 100 497.726562 99.300781 498.226562 98.5 498.226562 C 97.699219 498.226562 97 498.925781 97 499.824219 C 97 500.625 96.5 501.023438 96 500.722656 C 95.398438 500.324219 95 499.527344 95.101562 498.925781 C 95.398438 496.03125 94.898438 493.234375 94 493.234375 C 93.5 493.234375 93 494.132812 93 495.230469 Z M 104.601562 501.921875 C 103.601562 502.921875 102.699219 501.421875 103.601562 500.125 C 104.199219 499.027344 104.398438 499.027344 104.800781 500.125 C 105 500.824219 104.898438 501.621094 104.601562 501.921875 Z M 100 501.125 C 100 501.722656 99.601562 502.421875 99 502.71875 C 98.5 503.019531 98 502.621094 98 501.820312 C 98 500.921875 98.5 500.222656 99 500.222656 C 99.601562 500.222656 100 500.625 100 501.125 Z M 104.699219 505.714844 C 104.101562 507.3125 99 507.613281 99 506.015625 C 99 503.519531 101.101562 502.222656 103.101562 503.519531 C 104.199219 504.21875 104.898438 505.117188 104.699219 505.714844 Z M 104.699219 505.714844 "/>
<path style=" stroke:none;fill-rule:nonzero;fill:rgb(0%,0%,0%);fill-opacity:1;" d="M 60.300781 496.332031 C 61.5 497.03125 62 498.625 62 502.222656 C 62 506.515625 61.699219 507.214844 60 507.214844 C 58.898438 507.214844 58 507.613281 58 508.210938 C 58 508.710938 60 509.210938 62.5 509.210938 C 65 509.210938 67 508.710938 67 508.210938 C 67 507.613281 66.300781 507.214844 65.5 507.214844 C 63.101562 507.214844 63.398438 496.53125 65.800781 495.929688 C 66.699219 495.632812 65.5 495.433594 63 495.332031 C 59.5 495.332031 58.898438 495.53125 60.300781 496.332031 Z M 60.300781 496.332031 "/>
<path style=" stroke:none;fill-rule:nonzero;fill:rgb(0%,0%,0%);fill-opacity:1;" d="M 84.398438 498.726562 C 84 499.527344 84.101562 501.324219 84.398438 502.621094 C 84.800781 504.21875 84.398438 505.617188 83.5 506.613281 C 81.5 508.613281 81.601562 509.210938 84 509.210938 C 85.800781 509.210938 86 508.511719 86 503.21875 C 86 497.328125 85.5 495.832031 84.398438 498.726562 Z M 84.398438 498.726562 "/>
</g>
</svg>
