<?xml version="1.0" standalone="no"?>
<!DOCTYPE svg PUBLIC "-//W3C//DTD SVG 20010904//EN"
 "http://www.w3.org/TR/2001/REC-SVG-20010904/DTD/svg10.dtd">
<svg version="1.0" xmlns="http://www.w3.org/2000/svg"
 width="500.000000pt" height="500.000000pt" viewBox="0 0 500.000000 500.000000"
 preserveAspectRatio="xMidYMid meet">

<g transform="translate(0.000000,500.000000) scale(0.100000,-0.100000)"
fill="#000000" stroke="none">
<path d="M1200 4191 c0 -5 6 -14 14 -20 8 -7 25 -37 37 -67 17 -41 25 -51 29
-38 5 14 12 9 37 -27 17 -24 47 -61 66 -81 19 -21 30 -38 23 -38 -13 0 -115
67 -131 86 -5 6 -30 29 -54 50 -63 56 -36 9 36 -62 69 -67 181 -124 370 -185
72 -24 129 -47 127 -51 -6 -9 39 -28 64 -27 12 0 11 3 -5 9 -13 5 -23 11 -23
14 0 5 80 -13 94 -22 6 -3 37 -7 68 -8 31 -1 72 -8 90 -17 42 -19 205 -34 523
-47 440 -18 665 -38 865 -76 52 -10 173 -68 198 -94 15 -16 22 -37 22 -62 0
-43 24 -54 35 -15 4 12 21 37 38 55 45 47 49 130 12 267 -37 136 -67 196 -123
246 -57 50 -90 67 -212 109 l-95 32 -326 10 c-293 9 -330 8 -358 -7 -70 -36
-321 -75 -596 -93 l-110 -7 70 -6 c39 -4 -6 -5 -100 -4 -109 3 -195 10 -240
20 -38 9 -108 22 -155 29 -50 8 -107 24 -139 40 -29 15 -62 25 -73 23 -14 -4
-26 5 -45 34 -26 40 -33 46 -33 30z"/>
<path d="M1215 3740 c-55 -17 -112 -76 -153 -159 -33 -65 -40 -92 -46 -162 -8
-97 12 -245 39 -303 33 -69 185 -161 310 -187 131 -28 476 -12 594 27 25 7 62
14 82 14 30 0 37 3 33 15 -5 12 2 15 31 15 21 0 34 4 30 10 -4 6 21 10 67 11
47 1 64 4 48 8 -23 7 -21 8 15 14 22 4 102 7 178 7 81 0 137 4 137 10 0 5 9
14 21 20 17 9 23 8 33 -6 9 -12 20 -15 39 -10 15 3 39 9 53 12 23 6 25 4 19
-15 -5 -18 -2 -21 19 -21 30 0 34 14 9 29 -15 8 -10 11 22 11 l40 1 -38 14
c-53 18 -57 25 -14 25 22 0 37 -5 37 -12 0 -8 3 -9 10 -2 6 6 47 5 117 -2 60
-6 108 -12 108 -13 0 -1 27 -3 61 -5 34 -2 71 -9 82 -15 11 -6 34 -11 51 -11
23 0 34 8 51 35 12 19 23 35 25 35 3 0 18 -13 35 -30 17 -16 35 -30 41 -30 16
0 82 -30 77 -35 -2 -3 -30 4 -61 15 -31 11 -69 20 -84 19 -24 -1 -23 -3 14
-14 91 -29 229 -88 269 -116 36 -24 114 -107 114 -120 0 -2 -135 -4 -300 -4
-165 -1 -300 3 -300 7 0 4 -14 23 -31 43 -35 39 -47 36 -75 -17 -12 -23 -21
-28 -50 -28 -27 0 -35 -4 -31 -14 6 -16 0 -17 -204 -36 -59 -6 -160 -19 -225
-30 -66 -11 -145 -20 -177 -20 -32 0 -71 -7 -87 -15 -16 -8 -62 -19 -102 -25
-40 -5 -109 -14 -153 -20 -52 -7 -92 -7 -113 -1 -19 6 -72 13 -118 17 l-84 7
-47 -45 c-47 -43 -50 -44 -148 -57 -55 -7 -144 -22 -198 -32 -97 -19 -191 -24
-221 -13 -11 4 -16 19 -16 50 0 56 -19 66 -71 36 -21 -12 -46 -22 -57 -22 -44
0 -53 -20 -61 -140 l-7 -115 42 -65 c78 -121 162 -183 271 -200 62 -10 85 -4
159 45 42 28 201 105 217 105 11 0 31 -264 31 -420 0 -171 -1 -176 -28 -235
-103 -217 -309 -517 -469 -682 l-60 -61 33 -17 c27 -14 37 -15 59 -5 14 7 61
14 103 15 113 4 152 30 343 231 87 91 185 183 217 205 66 45 80 63 103 136 15
47 16 56 2 95 -9 24 -18 75 -21 113 -5 77 -25 136 -68 205 -40 63 -69 161 -75
256 -8 123 -1 146 58 190 47 34 60 38 182 56 73 10 172 30 221 44 50 14 121
28 158 31 l68 6 0 -149 c-1 -82 -5 -180 -10 -219 -5 -38 -14 -171 -20 -295
-12 -238 -19 -270 -61 -270 -20 0 -276 103 -352 141 -21 11 -41 19 -43 17 -2
-2 9 -20 24 -39 16 -19 29 -47 30 -63 1 -16 14 -45 29 -65 35 -47 120 -131
133 -131 5 0 38 -28 73 -62 35 -35 81 -78 103 -97 21 -18 62 -55 91 -82 46
-44 57 -49 97 -49 24 0 55 4 69 9 37 14 155 141 163 176 4 16 23 49 43 71 83
95 112 321 71 560 -26 153 -76 382 -99 459 -10 33 -22 78 -25 101 l-7 41 123
7 c184 10 181 11 213 -93 80 -253 76 -226 81 -576 6 -385 9 -402 99 -544 72
-114 100 -142 208 -206 62 -37 89 -62 137 -124 64 -85 76 -91 173 -91 46 0 53
3 98 49 31 30 49 57 49 71 0 13 10 34 22 47 20 21 21 26 9 80 -7 32 -19 72
-26 88 -7 17 -89 132 -182 256 -93 124 -184 250 -201 281 -33 56 -55 151 -87
368 -9 58 -34 158 -56 224 -22 65 -39 120 -37 122 2 1 55 -12 118 -30 110 -31
252 -95 353 -158 51 -33 84 -33 145 -3 22 12 36 13 57 5 34 -13 45 -12 23 1
-34 19 -13 78 39 109 37 22 45 36 67 133 l16 68 -35 51 c-19 28 -35 58 -35 67
0 9 -17 25 -37 36 -23 12 -39 30 -43 45 -4 18 -17 29 -47 39 -40 14 -41 16
-48 70 -9 69 -38 148 -68 182 -79 89 -252 154 -502 190 -44 6 -116 19 -160 29
-56 13 -139 21 -275 25 -244 7 -480 24 -500 36 -12 7 -10 8 8 9 12 0 22 5 22
11 0 9 -26 10 -90 6 -52 -3 -88 -2 -85 3 7 12 -22 16 -245 40 -219 23 -258 28
-285 40 -11 4 -78 18 -150 29 -169 28 -228 45 -297 88 -64 38 -70 55 -37 97
35 44 76 59 182 64 104 5 127 17 50 26 -27 3 -73 11 -103 17 -88 17 -123 19
-155 9z m2168 -551 c21 0 21 -1 2 -9 -11 -5 -36 -9 -56 -9 -23 -1 -39 -7 -43
-16 -7 -19 -32 -19 -106 2 -80 22 -59 35 41 27 49 -4 83 -2 95 5 11 6 25 8 32
6 8 -3 23 -5 35 -6z m62 -97 c-3 -3 -11 0 -18 7 -9 10 -8 11 6 5 10 -3 15 -9
12 -12z m320 -280 c-3 -3 -11 0 -18 7 -9 10 -8 11 6 5 10 -3 15 -9 12 -12z"/>
<path d="M3158 3173 c6 -2 18 -2 25 0 6 3 1 5 -13 5 -14 0 -19 -2 -12 -5z"/>
<path d="M2470 3318 c-20 -9 -22 -12 -8 -15 10 -3 28 3 40 11 26 19 7 21 -32
4z"/>
<path d="M2858 3073 c7 -3 16 -2 19 1 4 3 -2 6 -13 5 -11 0 -14 -3 -6 -6z"/>
</g>
</svg>
